<svg xmlns="http://www.w3.org/2000/svg" xmlns:xlink="http://www.w3.org/1999/xlink" contentStyleType="text/css" height="1770.3px" preserveAspectRatio="none" style="width:2491px;height:1770px;background:#FFFFFF;" version="1.1" viewBox="0 0 2491 1770" width="2491.2px" zoomAndPan="magnify"><defs/><g><g id="USER"><rect fill="#E2EFDA" height="35.1611" style="stroke:#181818;stroke-width:0.45;" width="45.5561" x="1487.583" y="89.964"/><text fill="#000000" font-family="sans-serif" font-size="12.6" lengthAdjust="spacing" textLength="27.5561" x="1496.583" y="112.4333">User</text></g><g id="USER/UserID"><ellipse cx="1279.9659" cy="20.2347" fill="#F1F1F1" rx="34.2219" ry="14.8347" style="stroke:#181818;stroke-width:0.45;"/><text fill="#000000" font-family="sans-serif" font-size="12.6" font-weight="bold" lengthAdjust="spacing" text-decoration="underline" textLength="44.5786" x="1257.6765" y="24.2693">user_id</text></g><g id="USER/username"><ellipse cx="1390.664" cy="20.2347" fill="#F1F1F1" rx="45.038" ry="14.8347" style="stroke:#181818;stroke-width:0.45;"/><text fill="#000000" font-family="sans-serif" font-size="12.6" lengthAdjust="spacing" textLength="59.875" x="1360.7265" y="24.2693">username</text></g><g id="USER/password"><ellipse cx="1510.364" cy="20.2347" fill="#F1F1F1" rx="43.265" ry="14.8347" style="stroke:#181818;stroke-width:0.45;"/><text fill="#000000" font-family="sans-serif" font-size="12.6" lengthAdjust="spacing" textLength="57.3676" x="1481.6802" y="24.2693">password</text></g><g id="USER/email"><ellipse cx="1611.1629" cy="20.2347" fill="#F1F1F1" rx="25.6509" ry="14.8347" style="stroke:#181818;stroke-width:0.45;"/><text fill="#000000" font-family="sans-serif" font-size="12.6" lengthAdjust="spacing" textLength="32.4575" x="1594.9342" y="24.2693">email</text></g><g id="USER/auth_type"><ellipse cx="1712.864" cy="20.2347" fill="#F1F1F1" rx="44.147" ry="14.8347" style="stroke:#181818;stroke-width:0.45;"/><text fill="#000000" font-family="sans-serif" font-size="12.6" lengthAdjust="spacing" textLength="58.615" x="1683.5566" y="24.2693">auth_type</text></g><g id="PROFILE"><rect fill="#E2EFDA" height="35.1611" style="stroke:#181818;stroke-width:0.45;" width="56.3921" x="241.965" y="570.132"/><text fill="#000000" font-family="sans-serif" font-size="12.6" lengthAdjust="spacing" textLength="38.3921" x="250.965" y="592.6013">Profile</text></g><g id="PROFILE/ProfileID"><ellipse cx="270.1663" cy="450.8847" fill="#F1F1F1" rx="43.9243" ry="14.8347" style="stroke:#181818;stroke-width:0.45;"/><text fill="#000000" font-family="sans-serif" font-size="12.6" font-weight="bold" lengthAdjust="spacing" text-decoration="underline" textLength="58.3" x="241.0163" y="454.9193">profile_id</text></g><g id="PROFILE/UserIDFK"><ellipse cx="378.1612" cy="450.8847" fill="#F1F1F1" rx="32.9122" ry="14.8347" style="stroke:#181818;stroke-width:0.45;"/><text fill="#000000" font-family="sans-serif" font-size="12.6" lengthAdjust="spacing" textLength="42.7264" x="356.7979" y="454.9193">user_id</text></g><g id="PROFILE/profile_picture_url"><ellipse cx="514.0582" cy="450.8776" fill="#F1F1F1" rx="71.5282" ry="16.4656" style="stroke:#181818;stroke-width:0.45;"/><text fill="#000000" font-family="sans-serif" font-size="12.6" lengthAdjust="spacing" textLength="107.6414" x="460.2375" y="453.2813">profile_picture_url</text></g><g id="PROFILE/personal_info"><ellipse cx="64.9605" cy="450.8847" fill="#F1F1F1" rx="59.5605" ry="14.8347" style="stroke:#181818;stroke-width:0.45;"/><text fill="#000000" font-family="sans-serif" font-size="12.6" lengthAdjust="spacing" textLength="80.4129" x="24.7541" y="454.9193">personal_info</text></g><g id="WORKSPACE"><rect fill="#E2EFDA" height="35.1611" style="stroke:#181818;stroke-width:0.45;" width="83.2803" x="1047.519" y="570.132"/><text fill="#000000" font-family="sans-serif" font-size="12.6" lengthAdjust="spacing" textLength="65.2803" x="1056.519" y="592.6013">Workspace</text></g><g id="WORKSPACE/WorkspaceID"><ellipse cx="970.3645" cy="450.8847" fill="#F1F1F1" rx="62.7145" ry="14.8347" style="stroke:#181818;stroke-width:0.45;"/><text fill="#000000" font-family="sans-serif" font-size="12.6" font-weight="bold" lengthAdjust="spacing" text-decoration="underline" textLength="84.8733" x="927.9278" y="454.9193">workspace_id</text></g><g id="WORKSPACE/name"><ellipse cx="1090.9627" cy="450.8847" fill="#F1F1F1" rx="26.5597" ry="14.8347" style="stroke:#181818;stroke-width:0.45;"/><text fill="#000000" font-family="sans-serif" font-size="12.6" lengthAdjust="spacing" textLength="33.7427" x="1074.0913" y="454.9193">name</text></g><g id="WORKSPACE/description"><ellipse cx="1198.9625" cy="450.8847" fill="#F1F1F1" rx="49.6175" ry="14.8347" style="stroke:#181818;stroke-width:0.45;"/><text fill="#000000" font-family="sans-serif" font-size="12.6" lengthAdjust="spacing" textLength="66.3514" x="1165.7868" y="454.9193">description</text></g><g id="WORKSPACE/join_code"><ellipse cx="1322.2646" cy="450.8847" fill="#F1F1F1" rx="42.3206" ry="14.8347" style="stroke:#181818;stroke-width:0.45;"/><text fill="#000000" font-family="sans-serif" font-size="12.6" lengthAdjust="spacing" textLength="56.032" x="1294.2486" y="454.9193">join_code</text></g><g id="WORKSPACE/created_at"><ellipse cx="1442.8664" cy="450.8847" fill="#F1F1F1" rx="46.5704" ry="14.8347" style="stroke:#181818;stroke-width:0.45;"/><text fill="#000000" font-family="sans-serif" font-size="12.6" lengthAdjust="spacing" textLength="62.0422" x="1411.8454" y="454.9193">created_at</text></g><g id="WORKSPACE/CreatedByFK"><ellipse cx="755.2661" cy="450.8847" fill="#F1F1F1" rx="48.3791" ry="14.8347" style="stroke:#181818;stroke-width:0.45;"/><text fill="#000000" font-family="sans-serif" font-size="12.6" lengthAdjust="spacing" textLength="64.6" x="722.9661" y="454.9193">created_by</text></g><g id="WORKSPACE_MEMBER"><rect fill="#E2EFDA" height="35.1611" style="stroke:#181818;stroke-width:0.45;" width="139.2493" x="404.838" y="1040.688"/><text fill="#000000" font-family="sans-serif" font-size="12.6" lengthAdjust="spacing" textLength="121.2493" x="413.838" y="1063.1573">Workspace_Member</text></g><g id="WORKSPACE_MEMBER/MemberID"><ellipse cx="532.9624" cy="970.6167" fill="#F1F1F1" rx="52.2814" ry="14.8347" style="stroke:#181818;stroke-width:0.45;"/><text fill="#000000" font-family="sans-serif" font-size="12.6" font-weight="bold" lengthAdjust="spacing" text-decoration="underline" textLength="70.1187" x="497.9031" y="974.6513">member_id</text></g><g id="WORKSPACE_MEMBER/UserIDFK"><ellipse cx="415.9612" cy="970.6167" fill="#F1F1F1" rx="32.9122" ry="14.8347" style="stroke:#181818;stroke-width:0.45;"/><text fill="#000000" font-family="sans-serif" font-size="12.6" lengthAdjust="spacing" textLength="42.7264" x="394.5979" y="974.6513">user_id</text></g><g id="WORKSPACE_MEMBER/WorkspaceIDFK"><ellipse cx="222.463" cy="970.6167" fill="#F1F1F1" rx="59.311" ry="14.8347" style="stroke:#181818;stroke-width:0.45;"/><text fill="#000000" font-family="sans-serif" font-size="12.6" lengthAdjust="spacing" textLength="80.0601" x="182.433" y="974.6513">workspace_id</text></g><g id="WORKSPACE_MEMBER/role"><ellipse cx="332.2575" cy="970.6167" fill="#F1F1F1" rx="19.0935" ry="14.8347" style="stroke:#181818;stroke-width:0.45;"/><text fill="#000000" font-family="sans-serif" font-size="12.6" lengthAdjust="spacing" textLength="23.1839" x="320.6655" y="974.6513">role</text></g><g id="NEWS"><rect fill="#E2EFDA" height="35.1611" style="stroke:#181818;stroke-width:0.45;" width="50.6213" x="1132.254" y="1040.688"/><text fill="#000000" font-family="sans-serif" font-size="12.6" lengthAdjust="spacing" textLength="32.6213" x="1141.254" y="1063.1573">News</text></g><g id="NEWS/NewsID"><ellipse cx="1216.9648" cy="970.6167" fill="#F1F1F1" rx="37.8658" ry="14.8347" style="stroke:#181818;stroke-width:0.45;"/><text fill="#000000" font-family="sans-serif" font-size="12.6" font-weight="bold" lengthAdjust="spacing" text-decoration="underline" textLength="49.732" x="1192.0988" y="974.6513">news_id</text></g><g id="NEWS/WorkspaceIDFK"><ellipse cx="1345.663" cy="970.6167" fill="#F1F1F1" rx="59.311" ry="14.8347" style="stroke:#181818;stroke-width:0.45;"/><text fill="#000000" font-family="sans-serif" font-size="12.6" lengthAdjust="spacing" textLength="80.0601" x="1305.633" y="974.6513">workspace_id</text></g><g id="NEWS/title"><ellipse cx="1455.4609" cy="970.6167" fill="#F1F1F1" rx="18.7549" ry="14.8347" style="stroke:#181818;stroke-width:0.45;"/><text fill="#000000" font-family="sans-serif" font-size="12.6" lengthAdjust="spacing" textLength="22.7051" x="1444.1084" y="974.6513">title</text></g><g id="NEWS/content"><ellipse cx="787.6596" cy="970.6167" fill="#F1F1F1" rx="34.8366" ry="14.8347" style="stroke:#181818;stroke-width:0.45;"/><text fill="#000000" font-family="sans-serif" font-size="12.6" lengthAdjust="spacing" textLength="45.448" x="764.9356" y="974.6513">content</text></g><g id="NEWS/created_at"><ellipse cx="900.1664" cy="970.6167" fill="#F1F1F1" rx="46.5704" ry="14.8347" style="stroke:#181818;stroke-width:0.45;"/><text fill="#000000" font-family="sans-serif" font-size="12.6" lengthAdjust="spacing" textLength="62.0422" x="869.1454" y="974.6513">created_at</text></g><g id="NEWS/CreatedByFK"><ellipse cx="1099.0661" cy="970.6167" fill="#F1F1F1" rx="48.3791" ry="14.8347" style="stroke:#181818;stroke-width:0.45;"/><text fill="#000000" font-family="sans-serif" font-size="12.6" lengthAdjust="spacing" textLength="64.6" x="1066.7661" y="974.6513">created_by</text></g><g id="ASSIGNMENT"><rect fill="#E2EFDA" height="35.1611" style="stroke:#181818;stroke-width:0.45;" width="88.1313" x="1969.398" y="1040.688"/><text fill="#000000" font-family="sans-serif" font-size="12.6" lengthAdjust="spacing" textLength="70.1313" x="1978.398" y="1063.1573">Assignment</text></g><g id="ASSIGNMENT/AssignmentID"><ellipse cx="2013.4629" cy="970.6106" fill="#F1F1F1" rx="65.0529" ry="15.1706" style="stroke:#181818;stroke-width:0.45;"/><text fill="#000000" font-family="sans-serif" font-size="12.6" font-weight="bold" lengthAdjust="spacing" text-decoration="underline" textLength="90.4928" x="1968.2165" y="974.3093">assignment_id</text></g><g id="ASSIGNMENT/WorkspaceIDFK"><ellipse cx="2169.163" cy="970.6167" fill="#F1F1F1" rx="59.311" ry="14.8347" style="stroke:#181818;stroke-width:0.45;"/><text fill="#000000" font-family="sans-serif" font-size="12.6" lengthAdjust="spacing" textLength="80.0601" x="2129.133" y="974.6513">workspace_id</text></g><g id="ASSIGNMENT/title"><ellipse cx="2278.9609" cy="970.6167" fill="#F1F1F1" rx="18.7549" ry="14.8347" style="stroke:#181818;stroke-width:0.45;"/><text fill="#000000" font-family="sans-serif" font-size="12.6" lengthAdjust="spacing" textLength="22.7051" x="2267.6084" y="974.6513">title</text></g><g id="ASSIGNMENT/description"><ellipse cx="2378.8625" cy="970.6167" fill="#F1F1F1" rx="49.6175" ry="14.8347" style="stroke:#181818;stroke-width:0.45;"/><text fill="#000000" font-family="sans-serif" font-size="12.6" lengthAdjust="spacing" textLength="66.3514" x="2345.6868" y="974.6513">description</text></g><g id="ASSIGNMENT/due_date"><ellipse cx="1683.1651" cy="970.6167" fill="#F1F1F1" rx="41.3851" ry="14.8347" style="stroke:#181818;stroke-width:0.45;"/><text fill="#000000" font-family="sans-serif" font-size="12.6" lengthAdjust="spacing" textLength="54.709" x="1655.8106" y="974.6513">due_date</text></g><g id="ASSIGNMENT/CreatedByFK"><ellipse cx="1804.6661" cy="970.6167" fill="#F1F1F1" rx="48.3791" ry="14.8347" style="stroke:#181818;stroke-width:0.45;"/><text fill="#000000" font-family="sans-serif" font-size="12.6" lengthAdjust="spacing" textLength="64.6" x="1772.3661" y="974.6513">created_by</text></g><g id="ASSIGNMENT_SUBMISSION"><rect fill="#E2EFDA" height="35.1611" style="stroke:#181818;stroke-width:0.45;" width="161.9419" x="2012.589" y="1393.803"/><text fill="#000000" font-family="sans-serif" font-size="12.6" lengthAdjust="spacing" textLength="143.9419" x="2021.589" y="1416.2723">Assignment_Submission</text></g><g id="ASSIGNMENT_SUBMISSION/SubmissionID"><ellipse cx="1673.2637" cy="1323.0723" fill="#F1F1F1" rx="64.1267" ry="14.9853" style="stroke:#181818;stroke-width:0.45;"/><text fill="#000000" font-family="sans-serif" font-size="12.6" font-weight="bold" lengthAdjust="spacing" text-decoration="underline" textLength="87.9225" x="1629.3025" y="1326.9563">submission_id</text></g><g id="ASSIGNMENT_SUBMISSION/AssignmentIDFK"><ellipse cx="1832.5582" cy="1323.0747" fill="#F1F1F1" rx="63.3292" ry="14.8347" style="stroke:#181818;stroke-width:0.45;"/><text fill="#000000" font-family="sans-serif" font-size="12.6" lengthAdjust="spacing" textLength="85.7427" x="1789.6869" y="1327.1093">assignment_id</text></g><g id="ASSIGNMENT_SUBMISSION/UserIDFK"><ellipse cx="1960.3612" cy="1323.0747" fill="#F1F1F1" rx="32.9122" ry="14.8347" style="stroke:#181818;stroke-width:0.45;"/><text fill="#000000" font-family="sans-serif" font-size="12.6" lengthAdjust="spacing" textLength="42.7264" x="1938.9979" y="1327.1093">user_id</text></g><g id="ASSIGNMENT_SUBMISSION/submission_date"><ellipse cx="2093.5636" cy="1323.0723" fill="#F1F1F1" rx="68.3566" ry="15.8313" style="stroke:#181818;stroke-width:0.45;"/><text fill="#000000" font-family="sans-serif" font-size="12.6" lengthAdjust="spacing" textLength="99.401" x="2043.8631" y="1326.1103">submission_date</text></g><g id="ASSIGNMENT_SUBMISSION/score"><ellipse cx="2218.6661" cy="1323.0747" fill="#F1F1F1" rx="25.3391" ry="14.8347" style="stroke:#181818;stroke-width:0.45;"/><text fill="#000000" font-family="sans-serif" font-size="12.6" lengthAdjust="spacing" textLength="32.0165" x="2202.6578" y="1327.1093">score</text></g><g id="FILE"><rect fill="#E2EFDA" height="35.1611" style="stroke:#181818;stroke-width:0.45;" width="38.1473" x="1786.491" y="1730.304"/><text fill="#000000" font-family="sans-serif" font-size="12.6" lengthAdjust="spacing" textLength="20.1473" x="1795.491" y="1752.7733">File</text></g><g id="FILE/FileID"><ellipse cx="1494.1585" cy="1660.5747" fill="#F1F1F1" rx="28.7425" ry="14.8347" style="stroke:#181818;stroke-width:0.45;"/><text fill="#000000" font-family="sans-serif" font-size="12.6" font-weight="bold" lengthAdjust="spacing" text-decoration="underline" textLength="36.8297" x="1475.7437" y="1664.6093">file_id</text></g><g id="FILE/SubmissionIDFK"><ellipse cx="1616.5623" cy="1660.5747" fill="#F1F1F1" rx="62.0463" ry="14.8347" style="stroke:#181818;stroke-width:0.45;"/><text fill="#000000" font-family="sans-serif" font-size="12.6" lengthAdjust="spacing" textLength="83.9283" x="1574.5981" y="1664.6093">submission_id</text></g><g id="FILE/file_name"><ellipse cx="1753.3646" cy="1660.5747" fill="#F1F1F1" rx="43.2026" ry="14.8347" style="stroke:#181818;stroke-width:0.45;"/><text fill="#000000" font-family="sans-serif" font-size="12.6" lengthAdjust="spacing" textLength="57.2794" x="1724.7249" y="1664.6093">file_name</text></g><g id="FILE/file_url"><ellipse cx="1858.6643" cy="1660.5747" fill="#F1F1F1" rx="30.8273" ry="14.8347" style="stroke:#181818;stroke-width:0.45;"/><text fill="#000000" font-family="sans-serif" font-size="12.6" lengthAdjust="spacing" textLength="39.778" x="1838.7753" y="1664.6093">file_url</text></g><g id="FILE/uploaded_at"><ellipse cx="1975.6576" cy="1660.5747" fill="#F1F1F1" rx="54.5266" ry="14.8347" style="stroke:#181818;stroke-width:0.45;"/><text fill="#000000" font-family="sans-serif" font-size="12.6" lengthAdjust="spacing" textLength="73.2939" x="1939.0107" y="1664.6093">uploaded_at</text></g><g id="HAS_PROFILE"><polygon fill="#DAE8FC" points="271.188,287.2234,308.8568,268.389,346.5256,287.2234,308.8568,306.0578" style="stroke:#181818;stroke-width:0.45;"/><text fill="#000000" font-family="sans-serif" font-size="12.6" lengthAdjust="spacing" textLength="20.8907" x="298.4114" y="292.1122">has</text></g><g id="IS_MEMBER"><polygon fill="#DAE8FC" points="638.757,373.0086,707.5603,338.607,776.3635,373.0086,707.5603,407.4103" style="stroke:#181818;stroke-width:0.45;"/><text fill="#000000" font-family="sans-serif" font-size="12.6" lengthAdjust="spacing" textLength="83.1597" x="665.9804" y="377.8974">is_member_of</text></g><g id="BELONGS_TO"><polygon fill="#DAE8FC" points="682.902,857.1673,742.6585,827.289,802.415,857.1673,742.6585,887.0455" style="stroke:#181818;stroke-width:0.45;"/><text fill="#000000" font-family="sans-serif" font-size="12.6" lengthAdjust="spacing" textLength="65.0662" x="710.1254" y="862.056">belongs_to</text></g><g id="CONTAINS_NEWS"><polygon fill="#DAE8FC" points="963.063,857.1637,1015.3603,831.015,1067.6577,857.1637,1015.3603,883.3123" style="stroke:#181818;stroke-width:0.45;"/><text fill="#000000" font-family="sans-serif" font-size="12.6" lengthAdjust="spacing" textLength="50.1478" x="990.2864" y="862.0524">contains</text></g><g id="HAS_ASSIGNMENT"><polygon fill="#DAE8FC" points="1323.288,857.1664,1360.9568,838.332,1398.6256,857.1664,1360.9568,876.0008" style="stroke:#181818;stroke-width:0.45;"/><text fill="#000000" font-family="sans-serif" font-size="12.6" lengthAdjust="spacing" textLength="20.8907" x="1350.5114" y="862.0552">has</text></g><g id="SUBMITS"><polygon fill="#DAE8FC" points="2241.648,657.6944,2292.4648,632.286,2343.2817,657.6944,2292.4648,683.1028" style="stroke:#181818;stroke-width:0.45;"/><text fill="#000000" font-family="sans-serif" font-size="12.6" lengthAdjust="spacing" textLength="47.1868" x="2268.8714" y="662.5832">submits</text></g><g id="CONTAINS_SUBMISSION"><polygon fill="#DAE8FC" points="2232.963,1226.1907,2285.2603,1200.042,2337.5577,1226.1907,2285.2603,1252.3393" style="stroke:#181818;stroke-width:0.45;"/><text fill="#000000" font-family="sans-serif" font-size="12.6" lengthAdjust="spacing" textLength="50.1478" x="2260.1864" y="1231.0794">contains</text></g><g id="HAS_FILE"><polygon fill="#DAE8FC" points="2055.888,1572.0004,2093.5568,1553.166,2131.2256,1572.0004,2093.5568,1590.8348" style="stroke:#181818;stroke-width:0.45;"/><text fill="#000000" font-family="sans-serif" font-size="12.6" lengthAdjust="spacing" textLength="20.8907" x="2083.1114" y="1576.8892">has</text></g><g id="CREATES"><polygon fill="#DAE8FC" points="1284.282,287.218,1333.064,262.827,1381.8459,287.218,1333.064,311.609" style="stroke:#181818;stroke-width:0.45;"/><text fill="#000000" font-family="sans-serif" font-size="12.6" lengthAdjust="spacing" textLength="43.117" x="1311.5054" y="292.1068">creates</text></g><g id="CREATES_NEWS"><polygon fill="#DAE8FC" points="1525.482,518.734,1574.264,494.343,1623.0459,518.734,1574.264,543.125" style="stroke:#181818;stroke-width:0.45;"/><text fill="#000000" font-family="sans-serif" font-size="12.6" lengthAdjust="spacing" textLength="43.117" x="1552.7054" y="523.6228">creates</text></g><g id="CREATES_ASSIGNMENT"><polygon fill="#DAE8FC" points="1746.882,734.5,1795.664,710.109,1844.4459,734.5,1795.664,758.891" style="stroke:#181818;stroke-width:0.45;"/><text fill="#000000" font-family="sans-serif" font-size="12.6" lengthAdjust="spacing" textLength="43.117" x="1774.1054" y="739.3888">creates</text></g><!--link USER/UserID to USER--><g id="link_USER/UserID_USER"><path d="M1305.054,30.447 C1350.072,47.16 1443.906,81.981 1487.358,98.109 " fill="none" id="USER/UserID-USER" style="stroke:#181818;stroke-width:0.9;"/></g><!--link USER/username to USER--><g id="link_USER/username_USER"><path d="M1408.842,34.119 C1429.902,49.167 1464.624,73.971 1487.493,90.315 " fill="none" id="USER/username-USER" style="stroke:#181818;stroke-width:0.9;"/></g><!--link USER/password to USER--><g id="link_USER/password_USER"><path d="M1510.362,35.253 C1510.362,50.148 1510.362,73.629 1510.362,89.559 " fill="none" id="USER/password-USER" style="stroke:#181818;stroke-width:0.9;"/></g><!--link USER/email to USER--><g id="link_USER/email_USER"><path d="M1597.149,33.021 C1579.833,47.709 1550.259,72.801 1530.513,89.55 " fill="none" id="USER/email-USER" style="stroke:#181818;stroke-width:0.9;"/></g><!--link USER/auth_type to USER--><g id="link_USER/auth_type_USER"><path d="M1686.384,32.31 C1646.397,49.203 1571.247,80.937 1533.393,96.921 " fill="none" id="USER/auth_type-USER" style="stroke:#181818;stroke-width:0.9;"/></g><!--link PROFILE/ProfileID to PROFILE--><g id="link_PROFILE/ProfileID_PROFILE"><path d="M270.162,465.975 C270.162,491.031 270.162,542.979 270.162,569.862 " fill="none" id="PROFILE/ProfileID-PROFILE" style="stroke:#181818;stroke-width:0.9;"/></g><!--link PROFILE/UserIDFK to PROFILE--><g id="link_PROFILE/UserIDFK_PROFILE"><path d="M367.407,465.219 C347.562,490.032 305.217,542.979 283.545,570.069 " fill="none" id="PROFILE/UserIDFK-PROFILE" style="stroke:#181818;stroke-width:0.9;"/></g><!--link PROFILE/profile_picture_url to PROFILE--><g id="link_PROFILE/profile_picture_url_PROFILE"><path d="M487.539,466.515 C455.004,484.587 398.142,516.15 349.362,543.132 C332.595,552.402 313.821,562.752 298.764,571.05 " fill="none" id="PROFILE/profile_picture_url-PROFILE" style="stroke:#181818;stroke-width:0.9;"/></g><!--link PROFILE/personal_info to PROFILE--><g id="link_PROFILE/personal_info_PROFILE"><path d="M77.157,465.822 C94.707,485.325 128.862,520.74 163.962,543.132 C188.415,558.729 219.384,570.699 241.551,578.133 " fill="none" id="PROFILE/personal_info-PROFILE" style="stroke:#181818;stroke-width:0.9;"/></g><!--link WORKSPACE/WorkspaceID to WORKSPACE--><g id="link_WORKSPACE/WorkspaceID_WORKSPACE"><path d="M982.629,465.723 C1004.562,490.653 1050.426,542.79 1074.186,569.79 " fill="none" id="WORKSPACE/WorkspaceID-WORKSPACE" style="stroke:#181818;stroke-width:0.9;"/></g><!--link WORKSPACE/name to WORKSPACE--><g id="link_WORKSPACE/name_WORKSPACE"><path d="M1090.773,465.975 C1090.44,491.031 1089.747,542.979 1089.387,569.862 " fill="none" id="WORKSPACE/name-WORKSPACE" style="stroke:#181818;stroke-width:0.9;"/></g><!--link WORKSPACE/description to WORKSPACE--><g id="link_WORKSPACE/description_WORKSPACE"><path d="M1187.622,465.723 C1167.354,490.653 1124.955,542.79 1103.004,569.79 " fill="none" id="WORKSPACE/description-WORKSPACE" style="stroke:#181818;stroke-width:0.9;"/></g><!--link WORKSPACE/join_code to WORKSPACE--><g id="link_WORKSPACE/join_code_WORKSPACE"><path d="M1301.868,464.301 C1272.681,482.139 1217.214,515.745 1169.262,543.132 C1153.44,552.159 1135.674,561.888 1120.896,569.871 " fill="none" id="WORKSPACE/join_code-WORKSPACE" style="stroke:#181818;stroke-width:0.9;"/></g><!--link WORKSPACE/created_at to WORKSPACE--><g id="link_WORKSPACE/created_at_WORKSPACE"><path d="M1417.95,463.68 C1378.908,482.076 1300.698,517.932 1232.262,543.132 C1198.746,555.471 1159.947,567.153 1131.219,575.325 " fill="none" id="WORKSPACE/created_at-WORKSPACE" style="stroke:#181818;stroke-width:0.9;"/></g><!--link WORKSPACE/CreatedByFK to WORKSPACE--><g id="link_WORKSPACE/CreatedByFK_WORKSPACE"><path d="M764.469,465.876 C778.734,486.468 808.245,524.367 843.462,543.132 C908.847,577.953 996.507,585.747 1047.51,587.079 " fill="none" id="WORKSPACE/CreatedByFK-WORKSPACE" style="stroke:#181818;stroke-width:0.9;"/></g><!--link WORKSPACE_MEMBER/MemberID to WORKSPACE_MEMBER--><g id="link_WORKSPACE_MEMBER/MemberID_WORKSPACE_MEMBER"><path d="M523.557,985.311 C513.351,1000.287 497.043,1024.227 486.054,1040.355 " fill="none" id="WORKSPACE_MEMBER/MemberID-WORKSPACE_MEMBER" style="stroke:#181818;stroke-width:0.9;"/></g><!--link WORKSPACE_MEMBER/UserIDFK to WORKSPACE_MEMBER--><g id="link_WORKSPACE_MEMBER/UserIDFK_WORKSPACE_MEMBER"><path d="M425.097,984.933 C435.321,999.927 451.89,1024.236 462.969,1040.508 " fill="none" id="WORKSPACE_MEMBER/UserIDFK-WORKSPACE_MEMBER" style="stroke:#181818;stroke-width:0.9;"/></g><!--link WORKSPACE_MEMBER/WorkspaceIDFK to WORKSPACE_MEMBER--><g id="link_WORKSPACE_MEMBER/WorkspaceIDFK_WORKSPACE_MEMBER"><path d="M256.446,983.097 C299.637,997.812 374.553,1023.327 424.314,1040.283 " fill="none" id="WORKSPACE_MEMBER/WorkspaceIDFK-WORKSPACE_MEMBER" style="stroke:#181818;stroke-width:0.9;"/></g><!--link WORKSPACE_MEMBER/role to WORKSPACE_MEMBER--><g id="link_WORKSPACE_MEMBER/role_WORKSPACE_MEMBER"><path d="M346.941,980.379 C370.287,994.473 416.286,1022.247 446.184,1040.292 " fill="none" id="WORKSPACE_MEMBER/role-WORKSPACE_MEMBER" style="stroke:#181818;stroke-width:0.9;"/></g><!--link NEWS/NewsID to NEWS--><g id="link_NEWS/NewsID_NEWS"><path d="M1207.413,985.311 C1197.054,1000.287 1180.494,1024.227 1169.325,1040.355 " fill="none" id="NEWS/NewsID-NEWS" style="stroke:#181818;stroke-width:0.9;"/></g><!--link NEWS/WorkspaceIDFK to NEWS--><g id="link_NEWS/WorkspaceIDFK_NEWS"><path d="M1318.311,983.997 C1282.032,1000.557 1218.492,1029.555 1183.131,1045.692 " fill="none" id="NEWS/WorkspaceIDFK-NEWS" style="stroke:#181818;stroke-width:0.9;"/></g><!--link NEWS/title to NEWS--><g id="link_NEWS/title_NEWS"><path d="M1439.19,978.606 C1433.313,981.036 1426.59,983.682 1420.362,985.788 C1334.799,1014.714 1230.624,1040.319 1183.239,1051.461 " fill="none" id="NEWS/title-NEWS" style="stroke:#181818;stroke-width:0.9;"/></g><!--link NEWS/content to NEWS--><g id="link_NEWS/content_NEWS"><path d="M815.841,979.794 C823.059,981.828 830.835,983.952 838.062,985.788 C946.89,1013.364 1077.957,1040.994 1132.182,1052.181 " fill="none" id="NEWS/content-NEWS" style="stroke:#181818;stroke-width:0.9;"/></g><!--link NEWS/created_at to NEWS--><g id="link_NEWS/created_at_NEWS"><path d="M922.347,983.907 C939.483,993.087 963.999,1005.399 986.562,1013.688 C1036.746,1032.12 1097.973,1045.719 1131.858,1052.514 " fill="none" id="NEWS/created_at-NEWS" style="stroke:#181818;stroke-width:0.9;"/></g><!--link NEWS/CreatedByFK to NEWS--><g id="link_NEWS/CreatedByFK_NEWS"><path d="M1108.458,985.311 C1118.664,1000.287 1134.981,1024.227 1145.97,1040.355 " fill="none" id="NEWS/CreatedByFK-NEWS" style="stroke:#181818;stroke-width:0.9;"/></g><!--link ASSIGNMENT/AssignmentID to ASSIGNMENT--><g id="link_ASSIGNMENT/AssignmentID_ASSIGNMENT"><path d="M2013.462,986.076 C2013.462,1001.097 2013.462,1024.506 2013.462,1040.364 " fill="none" id="ASSIGNMENT/AssignmentID-ASSIGNMENT" style="stroke:#181818;stroke-width:0.9;"/></g><!--link ASSIGNMENT/WorkspaceIDFK to ASSIGNMENT--><g id="link_ASSIGNMENT/WorkspaceIDFK_ASSIGNMENT"><path d="M2145.51,984.555 C2118.456,999.468 2074.068,1023.948 2044.314,1040.355 " fill="none" id="ASSIGNMENT/WorkspaceIDFK-ASSIGNMENT" style="stroke:#181818;stroke-width:0.9;"/></g><!--link ASSIGNMENT/title to ASSIGNMENT--><g id="link_ASSIGNMENT/title_ASSIGNMENT"><path d="M2262.645,978.489 C2256.768,980.91 2250.054,983.565 2243.862,985.788 C2179.773,1008.72 2104.218,1031.382 2057.571,1044.873 " fill="none" id="ASSIGNMENT/title-ASSIGNMENT" style="stroke:#181818;stroke-width:0.9;"/></g><!--link ASSIGNMENT/description to ASSIGNMENT--><g id="link_ASSIGNMENT/description_ASSIGNMENT"><path d="M2340.792,980.46 C2272.698,996.453 2130.426,1029.888 2057.949,1046.916 " fill="none" id="ASSIGNMENT/description-ASSIGNMENT" style="stroke:#181818;stroke-width:0.9;"/></g><!--link ASSIGNMENT/due_date to ASSIGNMENT--><g id="link_ASSIGNMENT/due_date_ASSIGNMENT"><path d="M1716.039,980.064 C1775.682,995.562 1901.736,1028.331 1968.993,1045.809 " fill="none" id="ASSIGNMENT/due_date-ASSIGNMENT" style="stroke:#181818;stroke-width:0.9;"/></g><!--link ASSIGNMENT/CreatedByFK to ASSIGNMENT--><g id="link_ASSIGNMENT/CreatedByFK_ASSIGNMENT"><path d="M1824.471,984.528 C1838.799,993.546 1858.851,1005.381 1877.562,1013.688 C1907.235,1026.855 1942.128,1037.988 1969.119,1045.71 " fill="none" id="ASSIGNMENT/CreatedByFK-ASSIGNMENT" style="stroke:#181818;stroke-width:0.9;"/></g><!--link ASSIGNMENT_SUBMISSION/SubmissionID to ASSIGNMENT_SUBMISSION--><g id="link_ASSIGNMENT_SUBMISSION/SubmissionID_ASSIGNMENT_SUBMISSION"><path d="M1720.251,1333.647 C1790.937,1348.2 1925.586,1375.911 2012.382,1393.776 " fill="none" id="ASSIGNMENT_SUBMISSION/SubmissionID-ASSIGNMENT_SUBMISSION" style="stroke:#181818;stroke-width:0.9;"/></g><!--link ASSIGNMENT_SUBMISSION/AssignmentIDFK to ASSIGNMENT_SUBMISSION--><g id="link_ASSIGNMENT_SUBMISSION/AssignmentIDFK_ASSIGNMENT_SUBMISSION"><path d="M1868.031,1335.735 C1912.914,1350.612 1990.539,1376.343 2041.983,1393.389 " fill="none" id="ASSIGNMENT_SUBMISSION/AssignmentIDFK-ASSIGNMENT_SUBMISSION" style="stroke:#181818;stroke-width:0.9;"/></g><!--link ASSIGNMENT_SUBMISSION/UserIDFK to ASSIGNMENT_SUBMISSION--><g id="link_ASSIGNMENT_SUBMISSION/UserIDFK_ASSIGNMENT_SUBMISSION"><path d="M1978.605,1335.825 C2001.546,1350.72 2041.101,1376.415 2067.291,1393.425 " fill="none" id="ASSIGNMENT_SUBMISSION/UserIDFK-ASSIGNMENT_SUBMISSION" style="stroke:#181818;stroke-width:0.9;"/></g><!--link ASSIGNMENT_SUBMISSION/submission_date to ASSIGNMENT_SUBMISSION--><g id="link_ASSIGNMENT_SUBMISSION/submission_date_ASSIGNMENT_SUBMISSION"><path d="M2093.562,1339.047 C2093.562,1354.248 2093.562,1377.675 2093.562,1393.515 " fill="none" id="ASSIGNMENT_SUBMISSION/submission_date-ASSIGNMENT_SUBMISSION" style="stroke:#181818;stroke-width:0.9;"/></g><!--link ASSIGNMENT_SUBMISSION/score to ASSIGNMENT_SUBMISSION--><g id="link_ASSIGNMENT_SUBMISSION/score_ASSIGNMENT_SUBMISSION"><path d="M2202.813,1334.934 C2181.51,1349.667 2143.422,1376.01 2118.321,1393.362 " fill="none" id="ASSIGNMENT_SUBMISSION/score-ASSIGNMENT_SUBMISSION" style="stroke:#181818;stroke-width:0.9;"/></g><!--link FILE/FileID to FILE--><g id="link_FILE/FileID_FILE"><path d="M1518.165,1669.086 C1524.942,1671.192 1532.322,1673.433 1539.162,1675.404 C1631.178,1702.008 1742.013,1730.736 1786.104,1742.031 " fill="none" id="FILE/FileID-FILE" style="stroke:#181818;stroke-width:0.9;"/></g><!--link FILE/SubmissionIDFK to FILE--><g id="link_FILE/SubmissionIDFK_FILE"><path d="M1644.444,1674.09 C1683.261,1691.649 1752.579,1723.014 1786.203,1738.233 " fill="none" id="FILE/SubmissionIDFK-FILE" style="stroke:#181818;stroke-width:0.9;"/></g><!--link FILE/file_name to FILE--><g id="link_FILE/file_name_FILE"><path d="M1761.75,1675.215 C1770.858,1690.128 1785.411,1713.978 1795.221,1730.043 " fill="none" id="FILE/file_name-FILE" style="stroke:#181818;stroke-width:0.9;"/></g><!--link FILE/file_url to FILE--><g id="link_FILE/file_url_FILE"><path d="M1850.13,1675.215 C1840.869,1690.128 1826.055,1713.978 1816.083,1730.043 " fill="none" id="FILE/file_url-FILE" style="stroke:#181818;stroke-width:0.9;"/></g><!--link FILE/uploaded_at to FILE--><g id="link_FILE/uploaded_at_FILE"><path d="M1950.561,1674.09 C1916.37,1691.28 1855.872,1721.691 1824.948,1737.243 " fill="none" id="FILE/uploaded_at-FILE" style="stroke:#181818;stroke-width:0.9;"/></g><!--link USER to HAS_PROFILE--><g id="link_USER_HAS_PROFILE"><path d="M1487.394,109.062 C1409.283,111.375 1146.87,121.122 932.562,152.127 C696.06,186.345 415.197,258.201 332.73,279.945 " fill="none" id="USER-HAS_PROFILE" style="stroke:#181818;stroke-width:1.8;"/><text fill="#000000" font-family="sans-serif" font-size="9.9" lengthAdjust="spacing" textLength="5.6628" x="760.833" y="191.51">1</text></g><!--link HAS_PROFILE to PROFILE--><g id="link_HAS_PROFILE_PROFILE"><path d="M296.235,299.898 C272.538,322.974 222.093,376.929 203.562,434.412 C187.164,485.253 229.248,542.196 253.854,569.871 " fill="none" id="HAS_PROFILE-PROFILE" style="stroke:#181818;stroke-width:1.8;"/><text fill="#000000" font-family="sans-serif" font-size="9.9" lengthAdjust="spacing" textLength="5.6628" x="204.462" y="455.165">1</text></g><!--link USER to IS_MEMBER--><g id="link_USER_IS_MEMBER"><path d="M1487.196,116.055 C1375.623,152.703 893.016,311.202 748.566,358.65 " fill="none" id="USER-IS_MEMBER" style="stroke:#181818;stroke-width:0.9;"/><text fill="#000000" font-family="sans-serif" font-size="9.9" lengthAdjust="spacing" textLength="5.6628" x="1290.042" y="191.51">1</text></g><!--link IS_MEMBER to WORKSPACE_MEMBER--><g id="link_IS_MEMBER_WORKSPACE_MEMBER"><path d="M686.556,397.197 C664.461,424.179 632.862,470.961 632.862,517.833 C632.862,517.833 632.862,517.833 632.862,971.514 C632.862,1014.678 586.827,1036.251 544.401,1046.97 " fill="none" id="IS_MEMBER-WORKSPACE_MEMBER" style="stroke:#181818;stroke-width:1.8;"/><text fill="#000000" font-family="sans-serif" font-size="9.9" lengthAdjust="spacing" textLength="7.5239" x="633.762" y="738.782">N</text></g><!--link WORKSPACE to BELONGS_TO--><g id="link_WORKSPACE_BELONGS_TO"><path d="M1067.22,605.556 C1005.183,653.472 828.909,789.642 765.63,838.521 " fill="none" id="WORKSPACE-BELONGS_TO" style="stroke:#181818;stroke-width:1.8;"/><text fill="#000000" font-family="sans-serif" font-size="9.9" lengthAdjust="spacing" textLength="5.6628" x="928.35" y="738.782">1</text></g><!--link BELONGS_TO to WORKSPACE_MEMBER--><g id="link_BELONGS_TO_WORKSPACE_MEMBER"><path d="M735.498,883.926 C724.437,918.864 699.804,980.586 656.262,1013.688 C624.339,1037.943 580.914,1048.959 544.5,1053.873 " fill="none" id="BELONGS_TO-WORKSPACE_MEMBER" style="stroke:#181818;stroke-width:1.8;"/><text fill="#000000" font-family="sans-serif" font-size="9.9" lengthAdjust="spacing" textLength="7.5239" x="704.943" y="974.897">N</text></g><!--link WORKSPACE to CONTAINS_NEWS--><g id="link_WORKSPACE_CONTAINS_NEWS"><path d="M1084.545,605.349 C1071.792,651.591 1036.089,781.083 1021.599,833.652 " fill="none" id="WORKSPACE-CONTAINS_NEWS" style="stroke:#181818;stroke-width:0.9;"/><text fill="#000000" font-family="sans-serif" font-size="9.9" lengthAdjust="spacing" textLength="5.6628" x="1055.619" y="738.782">1</text></g><!--link CONTAINS_NEWS to NEWS--><g id="link_CONTAINS_NEWS_NEWS"><path d="M1011.105,881.622 C1007.478,908.991 1005.669,954.387 1026.162,985.788 C1050.507,1023.093 1101.204,1042.542 1132.02,1051.317 " fill="none" id="CONTAINS_NEWS-NEWS" style="stroke:#181818;stroke-width:1.8;"/><text fill="#000000" font-family="sans-serif" font-size="9.9" lengthAdjust="spacing" textLength="7.5239" x="1027.062" y="974.897">N</text></g><!--link WORKSPACE to HAS_ASSIGNMENT--><g id="link_WORKSPACE_HAS_ASSIGNMENT"><path d="M1106.163,605.349 C1156.716,655.137 1305.288,801.441 1348.839,844.326 " fill="none" id="WORKSPACE-HAS_ASSIGNMENT" style="stroke:#181818;stroke-width:0.9;"/><text fill="#000000" font-family="sans-serif" font-size="9.9" lengthAdjust="spacing" textLength="5.6628" x="1261.818" y="738.782">1</text></g><!--link HAS_ASSIGNMENT to ASSIGNMENT--><g id="link_HAS_ASSIGNMENT_ASSIGNMENT"><path d="M1377.063,868.131 C1416.483,892.305 1521.612,953.982 1617.462,985.788 C1741.122,1026.819 1894.779,1046.061 1969.092,1053.477 " fill="none" id="HAS_ASSIGNMENT-ASSIGNMENT" style="stroke:#181818;stroke-width:1.8;"/><text fill="#000000" font-family="sans-serif" font-size="9.9" lengthAdjust="spacing" textLength="7.5239" x="1618.362" y="974.897">N</text></g><!--link USER to SUBMITS--><g id="link_USER_SUBMITS"><path d="M1533.456,108.981 C1643.445,111.789 2108.862,127.197 2108.862,186.327 C2108.862,186.327 2108.862,186.327 2108.862,519.633 C2108.862,594.036 2206.827,632.934 2259.639,648.495 " fill="none" id="USER-SUBMITS" style="stroke:#181818;stroke-width:0.9;"/><text fill="#000000" font-family="sans-serif" font-size="9.9" lengthAdjust="spacing" textLength="5.6628" x="2109.762" y="291.5">1</text></g><!--link SUBMITS to ASSIGNMENT_SUBMISSION--><g id="link_SUBMITS_ASSIGNMENT_SUBMISSION"><path d="M2326.14,666.657 C2379.141,681.57 2476.062,718.866 2476.062,792.189 C2476.062,792.189 2476.062,792.189 2476.062,1323.972 C2476.062,1385.208 2287.224,1403.1 2174.913,1408.329 " fill="none" id="SUBMITS-ASSIGNMENT_SUBMISSION" style="stroke:#181818;stroke-width:1.8;"/><text fill="#000000" font-family="sans-serif" font-size="9.9" lengthAdjust="spacing" textLength="7.5239" x="2476.962" y="1062.548">N</text></g><!--link ASSIGNMENT to CONTAINS_SUBMISSION--><g id="link_ASSIGNMENT_CONTAINS_SUBMISSION"><path d="M2041.272,1076.166 C2095.119,1109.079 2212.686,1180.935 2262.366,1211.301 " fill="none" id="ASSIGNMENT-CONTAINS_SUBMISSION" style="stroke:#181818;stroke-width:0.9;"/><text fill="#000000" font-family="sans-serif" font-size="9.9" lengthAdjust="spacing" textLength="5.6628" x="2154.789" y="1142.225">1</text></g><!--link CONTAINS_SUBMISSION to ASSIGNMENT_SUBMISSION--><g id="link_CONTAINS_SUBMISSION_ASSIGNMENT_SUBMISSION"><path d="M2285.865,1252.377 C2285.136,1277.1 2280.339,1314.495 2260.062,1338.903 C2237.742,1365.768 2203.479,1382.796 2171.817,1393.461 " fill="none" id="CONTAINS_SUBMISSION-ASSIGNMENT_SUBMISSION" style="stroke:#181818;stroke-width:1.8;"/><text fill="#000000" font-family="sans-serif" font-size="9.9" lengthAdjust="spacing" textLength="7.5239" x="2277.828" y="1327.355">N</text></g><!--link ASSIGNMENT_SUBMISSION to HAS_FILE--><g id="link_ASSIGNMENT_SUBMISSION_HAS_FILE"><path d="M2093.562,1429.281 C2093.562,1459.368 2093.562,1521.747 2093.562,1552.77 " fill="none" id="ASSIGNMENT_SUBMISSION-HAS_FILE" style="stroke:#181818;stroke-width:0.9;"/><text fill="#000000" font-family="sans-serif" font-size="9.9" lengthAdjust="spacing" textLength="5.6628" x="2094.462" y="1495.349">1</text></g><!--link HAS_FILE to FILE--><g id="link_HAS_FILE_FILE"><path d="M2090.25,1589.67 C2084.895,1612.386 2072.151,1652.697 2045.862,1675.404 C1979.64,1732.599 1869.273,1744.11 1824.903,1746.414 " fill="none" id="HAS_FILE-FILE" style="stroke:#181818;stroke-width:1.8;"/><text fill="#000000" font-family="sans-serif" font-size="9.9" lengthAdjust="spacing" textLength="7.5239" x="2069.838" y="1664.855">N</text></g><!--link USER to CREATES--><g id="link_USER_CREATES"><path d="M1493.361,125.505 C1459.125,159.849 1382.301,236.916 1348.983,270.342 " fill="none" id="USER-CREATES" style="stroke:#181818;stroke-width:0.9;"/><text fill="#000000" font-family="sans-serif" font-size="9.9" lengthAdjust="spacing" textLength="5.6628" x="1439.505" y="191.51">1</text></g><!--link CREATES to WORKSPACE--><g id="link_CREATES_WORKSPACE"><path d="M1297.53,294.201 C1200.24,311.661 933.39,365.121 883.062,434.412 C832.914,503.451 973.521,554.562 1047.258,575.874 " fill="none" id="CREATES-WORKSPACE" style="stroke:#181818;stroke-width:1.8;"/><text fill="#000000" font-family="sans-serif" font-size="9.9" lengthAdjust="spacing" textLength="7.5239" x="883.962" y="455.165">N</text></g><!--link USER to CREATES_NEWS--><g id="link_USER_CREATES_NEWS"><path d="M1533.492,125.19 C1550.178,139.365 1569.762,161.334 1569.762,186.327 C1569.762,186.327 1569.762,186.327 1569.762,373.914 C1569.762,416.538 1571.76,466.227 1573.092,494.658 " fill="none" id="USER-CREATES_NEWS" style="stroke:#181818;stroke-width:0.9;"/><text fill="#000000" font-family="sans-serif" font-size="9.9" lengthAdjust="spacing" textLength="5.6628" x="1570.662" y="232.91">1</text></g><!--link CREATES_NEWS to NEWS--><g id="link_CREATES_NEWS_NEWS"><path d="M1579.257,540.882 C1585.125,567.72 1594.062,615.411 1594.062,656.793 C1594.062,656.793 1594.062,656.793 1594.062,971.514 C1594.062,1055.799 1276.803,1058.769 1183.239,1057.815 " fill="none" id="CREATES_NEWS-NEWS" style="stroke:#181818;stroke-width:1.8;"/><text fill="#000000" font-family="sans-serif" font-size="9.9" lengthAdjust="spacing" textLength="7.5239" x="1594.962" y="797.372">N</text></g><!--link USER to CREATES_ASSIGNMENT--><g id="link_USER_CREATES_ASSIGNMENT"><path d="M1533.519,110.007 C1575.675,114.228 1660.662,129.753 1660.662,186.327 C1660.662,186.327 1660.662,186.327 1660.662,588.609 C1660.662,652.923 1732.698,700.641 1771.524,721.692 " fill="none" id="USER-CREATES_ASSIGNMENT" style="stroke:#181818;stroke-width:0.9;"/><text fill="#000000" font-family="sans-serif" font-size="9.9" lengthAdjust="spacing" textLength="5.6628" x="1661.562" y="377.297">1</text></g><!--link CREATES_ASSIGNMENT to ASSIGNMENT--><g id="link_CREATES_ASSIGNMENT_ASSIGNMENT"><path d="M1803.699,755.316 C1822.176,799.632 1870.821,908.541 1932.462,985.788 C1949.319,1006.911 1972.836,1026.918 1990.197,1040.382 " fill="none" id="CREATES_ASSIGNMENT-ASSIGNMENT" style="stroke:#181818;stroke-width:1.8;"/><text fill="#000000" font-family="sans-serif" font-size="9.9" lengthAdjust="spacing" textLength="7.5239" x="1891.971" y="925.523">N</text></g><!--SRC=[jLTTJ-Cu57tthx3Obva7s06D5eIWeXyfMw0fQbfujDp4BLuIEx8Tc6h4Vzzh9scIDXIqCoiX4Vj-d7Elhq_IAsseCk4J4pYCgTPAoeJejJOiGUX2ctNCEkY82SFD6lz46FTe-7ojP2QYleobmdzu9zvmq0NBK0gJxorYS49lw4Ync1ekXNxYQNlqeEkT3VljqSyiXxIcm3B12nb7i35ZFyo0XLAvv1YoCHLpmI3eui-2Coeu7ymrKmUOQZmFl2c-kCZtEnsN-Y03A-5HxW3Fem6u072d0rPh53HXy9X2RrwbikWieJo6_pGpJyIiKmkxGRjNSibZvlBTJoV3qPstWvdcFYLi4T90Rk4rl0NxKYh6LmBRrXZfBCw_J9doq6IAaKnPXYbJMWeQ4owMiixoKQfddT8mv_aucTu6zzt-BjFNqg-aiWbii2rw534TAfxQCu7LFv8B4ih8MaB5g64HeSPcBLUBjSlPpvUzzPuAsxYJCKiMnTbkIY1ZRznhEUV4-PPbv96_rF6zlMcBt9XTk99nOsvyzgfT5jzx37RO2x2MCDQpoVpNc01ExCu8RXcW_kRJwceDzWIMBheR1ADhV-pvivqQwSQpBAEA_J_gRKvhb34IGM6_is8IP8k4mrAAhU99CE-DHx2S-3jzq9kWihmgJRCF-plMnhQo_wUPhr4hUgL1X1jpF2p5hrNvwh8ttD6y_PNlhwVMQvVC8HMwv9vpHSpIMD8edsrWtNW_7JpH_0h-tGr8fTrr7rV76t9lailZoxedgaTPMxc_1S8rARH8BXtQAAWqwpsim-F3oWzL4PV-vOxqRGCkM2p5IXCZ7LpFkvlurm6PJThngfU1BQBoHhN0py1QEQ5Sv1tjJ_nPT-G7f52tlRYss4O0QePRTBUzv_WQElCXMZC2RIMmU3Nh5geRMfCZkriz2puuoC8BbTxD_3Lf-5nB6rBIWbkhfD7P6avRha-pghVz_IlJhdrbypSNAByz0DrsTN9TBigVUjsPzr6h2ozKUZS6znFfzyphDaOngVMuzmQr3UYZWTs1gqraIuxjcRrY8h8V-GZTnrIO-VWEly37eVrwFZuw-NRo_UZqIq0D3bYAlvtYuxDp-tUAH_qPjkQlw0lCAjOoKo734TT6yKLcENv5D_I5uca6Gf-mSpn9cRWPt9ORs1ClN4cdqUZcOLmv_FNziCSjeW8c-66C1cn9izX017mrSh4wn_FPyF0CtL6nokWASWF_FlnsC6eDjk1V]--></g></svg>