<svg xmlns="http://www.w3.org/2000/svg" xmlns:xlink="http://www.w3.org/1999/xlink" contentStyleType="text/css" height="1354.4px" preserveAspectRatio="none" style="width:2792px;height:1354px;background:#FFFFFF;" version="1.1" viewBox="0 0 2792 1354" width="2792px" zoomAndPan="magnify"><defs/><g><g id="USER"><rect fill="#E2EFDA" height="31.2543" style="stroke:#181818;stroke-width:0.4000000000000001;" width="40.4943" x="1271.56" y="79.968"/><text fill="#000000" font-family="sans-serif" font-size="11.2" lengthAdjust="spacing" textLength="24.4943" x="1279.56" y="99.9407">User</text></g><g id="USER/UserID"><ellipse cx="982.2114" cy="17.9864" fill="#F1F1F1" rx="30.4194" ry="13.1864" style="stroke:#181818;stroke-width:0.4000000000000001;"/><text fill="#000000" font-family="sans-serif" font-size="11.2" font-weight="bold" lengthAdjust="spacing" text-decoration="underline" textLength="39.6255" x="962.3987" y="21.5727">user_id</text></g><g id="USER/username"><ellipse cx="1080.6098" cy="17.9864" fill="#F1F1F1" rx="40.0338" ry="13.1864" style="stroke:#181818;stroke-width:0.4000000000000001;"/><text fill="#000000" font-family="sans-serif" font-size="11.2" lengthAdjust="spacing" textLength="53.2222" x="1053.9987" y="21.5727">username</text></g><g id="USER/password"><ellipse cx="1187.0098" cy="17.9864" fill="#F1F1F1" rx="38.4578" ry="13.1864" style="stroke:#181818;stroke-width:0.4000000000000001;"/><text fill="#000000" font-family="sans-serif" font-size="11.2" lengthAdjust="spacing" textLength="50.9934" x="1161.5131" y="21.5727">password</text></g><g id="USER/firstname"><ellipse cx="1291.8114" cy="17.9864" fill="#F1F1F1" rx="38.2994" ry="13.1864" style="stroke:#181818;stroke-width:0.4000000000000001;"/><text fill="#000000" font-family="sans-serif" font-size="11.2" lengthAdjust="spacing" textLength="50.7694" x="1266.4267" y="21.5727">firstname</text></g><g id="USER/lastname"><ellipse cx="1395.0112" cy="17.9864" fill="#F1F1F1" rx="36.7472" ry="13.1864" style="stroke:#181818;stroke-width:0.4000000000000001;"/><text fill="#000000" font-family="sans-serif" font-size="11.2" lengthAdjust="spacing" textLength="48.5742" x="1370.7241" y="21.5727">lastname</text></g><g id="USER/email"><ellipse cx="1482.2088" cy="17.9864" fill="#F1F1F1" rx="22.8008" ry="13.1864" style="stroke:#181818;stroke-width:0.4000000000000001;"/><text fill="#000000" font-family="sans-serif" font-size="11.2" lengthAdjust="spacing" textLength="28.8511" x="1467.7833" y="21.5727">email</text></g><g id="USER/auth_type"><ellipse cx="1572.6098" cy="17.9864" fill="#F1F1F1" rx="39.2418" ry="13.1864" style="stroke:#181818;stroke-width:0.4000000000000001;"/><text fill="#000000" font-family="sans-serif" font-size="11.2" lengthAdjust="spacing" textLength="52.1022" x="1546.5587" y="21.5727">auth_type</text></g><g id="WORKSPACE"><rect fill="#E2EFDA" height="31.2543" style="stroke:#181818;stroke-width:0.4000000000000001;" width="74.027" x="784.392" y="521.92"/><text fill="#000000" font-family="sans-serif" font-size="11.2" lengthAdjust="spacing" textLength="58.027" x="792.392" y="541.8927">Workspace</text></g><g id="WORKSPACE/WorkspaceID"><ellipse cx="847.0102" cy="399.3304" fill="#F1F1F1" rx="55.7462" ry="13.1864" style="stroke:#181818;stroke-width:0.4000000000000001;"/><text fill="#000000" font-family="sans-serif" font-size="11.2" font-weight="bold" lengthAdjust="spacing" text-decoration="underline" textLength="75.4429" x="809.2887" y="402.9167">workspace_id</text></g><g id="WORKSPACE/name"><ellipse cx="954.2086" cy="399.3304" fill="#F1F1F1" rx="23.6086" ry="13.1864" style="stroke:#181818;stroke-width:0.4000000000000001;"/><text fill="#000000" font-family="sans-serif" font-size="11.2" lengthAdjust="spacing" textLength="29.9935" x="939.2119" y="402.9167">name</text></g><g id="WORKSPACE/description"><ellipse cx="1050.2084" cy="399.3304" fill="#F1F1F1" rx="44.1044" ry="13.1864" style="stroke:#181818;stroke-width:0.4000000000000001;"/><text fill="#000000" font-family="sans-serif" font-size="11.2" lengthAdjust="spacing" textLength="58.979" x="1020.7189" y="402.9167">description</text></g><g id="WORKSPACE/join_code"><ellipse cx="1159.8103" cy="399.3304" fill="#F1F1F1" rx="37.6183" ry="13.1864" style="stroke:#181818;stroke-width:0.4000000000000001;"/><text fill="#000000" font-family="sans-serif" font-size="11.2" lengthAdjust="spacing" textLength="49.8062" x="1134.9072" y="402.9167">join_code</text></g><g id="WORKSPACE/created_at"><ellipse cx="543.8119" cy="399.3304" fill="#F1F1F1" rx="41.3959" ry="13.1864" style="stroke:#181818;stroke-width:0.4000000000000001;"/><text fill="#000000" font-family="sans-serif" font-size="11.2" lengthAdjust="spacing" textLength="55.1486" x="516.2376" y="402.9167">created_at</text></g><g id="WORKSPACE/CreatedByFK"><ellipse cx="655.8116" cy="399.3304" fill="#F1F1F1" rx="43.0036" ry="13.1864" style="stroke:#181818;stroke-width:0.4000000000000001;"/><text fill="#000000" font-family="sans-serif" font-size="11.2" lengthAdjust="spacing" textLength="57.4222" x="627.1005" y="402.9167">created_by</text></g><g id="WORKSPACE_MEMBER"><rect fill="#E2EFDA" height="31.2543" style="stroke:#181818;stroke-width:0.4000000000000001;" width="123.7772" x="261.12" y="975.312"/><text fill="#000000" font-family="sans-serif" font-size="11.2" lengthAdjust="spacing" textLength="107.7772" x="269.12" y="995.2847">Workspace_Member</text></g><g id="WORKSPACE_MEMBER/MemberID"><ellipse cx="368.6084" cy="901.0344" fill="#F1F1F1" rx="46.4724" ry="13.1864" style="stroke:#181818;stroke-width:0.4000000000000001;"/><text fill="#000000" font-family="sans-serif" font-size="11.2" font-weight="bold" lengthAdjust="spacing" text-decoration="underline" textLength="62.3278" x="337.4445" y="904.6207">member_id</text></g><g id="WORKSPACE_MEMBER/UserIDFK"><ellipse cx="472.6072" cy="901.0344" fill="#F1F1F1" rx="29.2552" ry="13.1864" style="stroke:#181818;stroke-width:0.4000000000000001;"/><text fill="#000000" font-family="sans-serif" font-size="11.2" lengthAdjust="spacing" textLength="37.9791" x="453.6177" y="904.6207">user_id</text></g><g id="WORKSPACE_MEMBER/WorkspaceIDFK"><ellipse cx="582.2089" cy="901.0344" fill="#F1F1F1" rx="52.7209" ry="13.1864" style="stroke:#181818;stroke-width:0.4000000000000001;"/><text fill="#000000" font-family="sans-serif" font-size="11.2" lengthAdjust="spacing" textLength="71.1645" x="546.6267" y="904.6207">workspace_id</text></g><g id="WORKSPACE_MEMBER/role"><ellipse cx="277.404" cy="901.0344" fill="#F1F1F1" rx="16.972" ry="13.1864" style="stroke:#181818;stroke-width:0.4000000000000001;"/><text fill="#000000" font-family="sans-serif" font-size="11.2" lengthAdjust="spacing" textLength="20.6079" x="267.1" y="904.6207">role</text></g><g id="NEWS"><rect fill="#E2EFDA" height="31.2543" style="stroke:#181818;stroke-width:0.4000000000000001;" width="44.9967" x="988.504" y="975.312"/><text fill="#000000" font-family="sans-serif" font-size="11.2" lengthAdjust="spacing" textLength="28.9967" x="996.504" y="995.2847">News</text></g><g id="NEWS/NewsID"><ellipse cx="760.6105" cy="901.0344" fill="#F1F1F1" rx="33.6585" ry="13.1864" style="stroke:#181818;stroke-width:0.4000000000000001;"/><text fill="#000000" font-family="sans-serif" font-size="11.2" font-weight="bold" lengthAdjust="spacing" text-decoration="underline" textLength="44.2062" x="738.5074" y="904.6207">news_id</text></g><g id="NEWS/WorkspaceIDFK"><ellipse cx="875.0089" cy="901.0344" fill="#F1F1F1" rx="52.7209" ry="13.1864" style="stroke:#181818;stroke-width:0.4000000000000001;"/><text fill="#000000" font-family="sans-serif" font-size="11.2" lengthAdjust="spacing" textLength="71.1645" x="839.4267" y="904.6207">workspace_id</text></g><g id="NEWS/title"><ellipse cx="972.6071" cy="901.0344" fill="#F1F1F1" rx="16.6711" ry="13.1864" style="stroke:#181818;stroke-width:0.4000000000000001;"/><text fill="#000000" font-family="sans-serif" font-size="11.2" lengthAdjust="spacing" textLength="20.1823" x="962.5159" y="904.6207">title</text></g><g id="NEWS/content"><ellipse cx="1048.6059" cy="901.0344" fill="#F1F1F1" rx="30.9659" ry="13.1864" style="stroke:#181818;stroke-width:0.4000000000000001;"/><text fill="#000000" font-family="sans-serif" font-size="11.2" lengthAdjust="spacing" textLength="40.3982" x="1028.4067" y="904.6207">content</text></g><g id="NEWS/created_at"><ellipse cx="1148.6119" cy="901.0344" fill="#F1F1F1" rx="41.3959" ry="13.1864" style="stroke:#181818;stroke-width:0.4000000000000001;"/><text fill="#000000" font-family="sans-serif" font-size="11.2" lengthAdjust="spacing" textLength="55.1486" x="1121.0376" y="904.6207">created_at</text></g><g id="NEWS/CreatedByFK"><ellipse cx="1260.6116" cy="901.0344" fill="#F1F1F1" rx="43.0036" ry="13.1864" style="stroke:#181818;stroke-width:0.4000000000000001;"/><text fill="#000000" font-family="sans-serif" font-size="11.2" lengthAdjust="spacing" textLength="57.4222" x="1231.9005" y="904.6207">created_by</text></g><g id="COMMENT"><rect fill="#E2EFDA" height="31.2543" style="stroke:#181818;stroke-width:0.4000000000000001;" width="68.0798" x="476.168" y="1318.552"/><text fill="#000000" font-family="sans-serif" font-size="11.2" lengthAdjust="spacing" textLength="52.0798" x="484.168" y="1338.5247">Comment</text></g><g id="COMMENT/CommentID"><ellipse cx="399.0042" cy="1255.6824" fill="#F1F1F1" rx="50.8202" ry="13.1864" style="stroke:#181818;stroke-width:0.4000000000000001;"/><text fill="#000000" font-family="sans-serif" font-size="11.2" font-weight="bold" lengthAdjust="spacing" text-decoration="underline" textLength="68.4765" x="364.766" y="1259.2687">comment_id</text></g><g id="COMMENT/NewsIDFK"><ellipse cx="510.2092" cy="1255.6824" fill="#F1F1F1" rx="32.2092" ry="13.1864" style="stroke:#181818;stroke-width:0.4000000000000001;"/><text fill="#000000" font-family="sans-serif" font-size="11.2" lengthAdjust="spacing" textLength="42.1566" x="489.1309" y="1259.2687">news_id</text></g><g id="COMMENT/UserIDFK"><ellipse cx="599.8072" cy="1255.6824" fill="#F1F1F1" rx="29.2552" ry="13.1864" style="stroke:#181818;stroke-width:0.4000000000000001;"/><text fill="#000000" font-family="sans-serif" font-size="11.2" lengthAdjust="spacing" textLength="37.9791" x="580.8177" y="1259.2687">user_id</text></g><g id="COMMENT/content"><ellipse cx="687.8059" cy="1255.6824" fill="#F1F1F1" rx="30.9659" ry="13.1864" style="stroke:#181818;stroke-width:0.4000000000000001;"/><text fill="#000000" font-family="sans-serif" font-size="11.2" lengthAdjust="spacing" textLength="40.3982" x="667.6067" y="1259.2687">content</text></g><g id="COMMENT/created_at"><ellipse cx="787.8119" cy="1255.6824" fill="#F1F1F1" rx="41.3959" ry="13.1864" style="stroke:#181818;stroke-width:0.4000000000000001;"/><text fill="#000000" font-family="sans-serif" font-size="11.2" lengthAdjust="spacing" textLength="55.1486" x="760.2376" y="1259.2687">created_at</text></g><g id="LIKE"><rect fill="#E2EFDA" height="31.2543" style="stroke:#181818;stroke-width:0.4000000000000001;" width="37.0559" x="1235.68" y="1318.552"/><text fill="#000000" font-family="sans-serif" font-size="11.2" lengthAdjust="spacing" textLength="21.0559" x="1243.68" y="1338.5247">Like</text></g><g id="LIKE/LikeID"><ellipse cx="1121.4102" cy="1255.6824" fill="#F1F1F1" rx="27.3942" ry="13.1864" style="stroke:#181818;stroke-width:0.4000000000000001;"/><text fill="#000000" font-family="sans-serif" font-size="11.2" font-weight="bold" lengthAdjust="spacing" text-decoration="underline" textLength="35.3471" x="1103.7366" y="1259.2687">like_id</text></g><g id="LIKE/NewsIDFK"><ellipse cx="1209.4092" cy="1255.6824" fill="#F1F1F1" rx="32.2092" ry="13.1864" style="stroke:#181818;stroke-width:0.4000000000000001;"/><text fill="#000000" font-family="sans-serif" font-size="11.2" lengthAdjust="spacing" textLength="42.1566" x="1188.3309" y="1259.2687">news_id</text></g><g id="LIKE/UserIDFK"><ellipse cx="1299.0072" cy="1255.6824" fill="#F1F1F1" rx="29.2552" ry="13.1864" style="stroke:#181818;stroke-width:0.4000000000000001;"/><text fill="#000000" font-family="sans-serif" font-size="11.2" lengthAdjust="spacing" textLength="37.9791" x="1280.0177" y="1259.2687">user_id</text></g><g id="LIKE/liked_at"><ellipse cx="1387.0068" cy="1255.6824" fill="#F1F1F1" rx="30.8708" ry="13.1864" style="stroke:#181818;stroke-width:0.4000000000000001;"/><text fill="#000000" font-family="sans-serif" font-size="11.2" lengthAdjust="spacing" textLength="40.2638" x="1366.8749" y="1259.2687">liked_at</text></g><g id="ASSIGNMENT"><rect fill="#E2EFDA" height="31.2543" style="stroke:#181818;stroke-width:0.4000000000000001;" width="78.339" x="1852.632" y="975.312"/><text fill="#000000" font-family="sans-serif" font-size="11.2" lengthAdjust="spacing" textLength="62.339" x="1860.632" y="995.2847">Assignment</text></g><g id="ASSIGNMENT/AssignmentID"><ellipse cx="1567.0088" cy="901.029" fill="#F1F1F1" rx="57.8248" ry="13.485" style="stroke:#181818;stroke-width:0.4000000000000001;"/><text fill="#000000" font-family="sans-serif" font-size="11.2" font-weight="bold" lengthAdjust="spacing" text-decoration="underline" textLength="80.4381" x="1526.7898" y="904.3167">assignment_id</text></g><g id="ASSIGNMENT/WorkspaceIDFK"><ellipse cx="1705.4089" cy="901.0344" fill="#F1F1F1" rx="52.7209" ry="13.1864" style="stroke:#181818;stroke-width:0.4000000000000001;"/><text fill="#000000" font-family="sans-serif" font-size="11.2" lengthAdjust="spacing" textLength="71.1645" x="1669.8267" y="904.6207">workspace_id</text></g><g id="ASSIGNMENT/title"><ellipse cx="1803.0071" cy="901.0344" fill="#F1F1F1" rx="16.6711" ry="13.1864" style="stroke:#181818;stroke-width:0.4000000000000001;"/><text fill="#000000" font-family="sans-serif" font-size="11.2" lengthAdjust="spacing" textLength="20.1823" x="1792.9159" y="904.6207">title</text></g><g id="ASSIGNMENT/description"><ellipse cx="1891.8084" cy="901.0344" fill="#F1F1F1" rx="44.1044" ry="13.1864" style="stroke:#181818;stroke-width:0.4000000000000001;"/><text fill="#000000" font-family="sans-serif" font-size="11.2" lengthAdjust="spacing" textLength="58.979" x="1862.3189" y="904.6207">description</text></g><g id="ASSIGNMENT/due_date"><ellipse cx="2000.6108" cy="901.0344" fill="#F1F1F1" rx="36.7868" ry="13.1864" style="stroke:#181818;stroke-width:0.4000000000000001;"/><text fill="#000000" font-family="sans-serif" font-size="11.2" lengthAdjust="spacing" textLength="48.6302" x="1976.2956" y="904.6207">due_date</text></g><g id="ASSIGNMENT/CreatedByFK"><ellipse cx="2108.6116" cy="901.0344" fill="#F1F1F1" rx="43.0036" ry="13.1864" style="stroke:#181818;stroke-width:0.4000000000000001;"/><text fill="#000000" font-family="sans-serif" font-size="11.2" lengthAdjust="spacing" textLength="57.4222" x="2079.9005" y="904.6207">created_by</text></g><g id="ASSIGNMENT_SUBMISSION"><rect fill="#E2EFDA" height="31.2543" style="stroke:#181818;stroke-width:0.4000000000000001;" width="143.9483" x="2281.432" y="1318.552"/><text fill="#000000" font-family="sans-serif" font-size="11.2" lengthAdjust="spacing" textLength="127.9483" x="2289.432" y="1338.5247">Assignment_Submission</text></g><g id="ASSIGNMENT_SUBMISSION/SubmissionID"><ellipse cx="2353.4095" cy="1255.6803" fill="#F1F1F1" rx="57.0015" ry="13.3203" style="stroke:#181818;stroke-width:0.4000000000000001;"/><text fill="#000000" font-family="sans-serif" font-size="11.2" font-weight="bold" lengthAdjust="spacing" text-decoration="underline" textLength="78.1533" x="2314.3329" y="1259.1327">submission_id</text></g><g id="ASSIGNMENT_SUBMISSION/AssignmentIDFK"><ellipse cx="2495.0046" cy="1255.6824" fill="#F1F1F1" rx="56.2926" ry="13.1864" style="stroke:#181818;stroke-width:0.4000000000000001;"/><text fill="#000000" font-family="sans-serif" font-size="11.2" lengthAdjust="spacing" textLength="76.2157" x="2456.8968" y="1259.2687">assignment_id</text></g><g id="ASSIGNMENT_SUBMISSION/UserIDFK"><ellipse cx="2608.6072" cy="1255.6824" fill="#F1F1F1" rx="29.2552" ry="13.1864" style="stroke:#181818;stroke-width:0.4000000000000001;"/><text fill="#000000" font-family="sans-serif" font-size="11.2" lengthAdjust="spacing" textLength="37.9791" x="2589.6177" y="1259.2687">user_id</text></g><g id="ASSIGNMENT_SUBMISSION/submission_date"><ellipse cx="2727.0094" cy="1255.6803" fill="#F1F1F1" rx="60.7614" ry="14.0723" style="stroke:#181818;stroke-width:0.4000000000000001;"/><text fill="#000000" font-family="sans-serif" font-size="11.2" lengthAdjust="spacing" textLength="88.3565" x="2682.8312" y="1258.3807">submission_date</text></g><g id="ASSIGNMENT_SUBMISSION/score"><ellipse cx="2189.4116" cy="1255.6824" fill="#F1F1F1" rx="22.5236" ry="13.1864" style="stroke:#181818;stroke-width:0.4000000000000001;"/><text fill="#000000" font-family="sans-serif" font-size="11.2" lengthAdjust="spacing" textLength="28.4591" x="2175.1821" y="1259.2687">score</text></g><g id="IS_MEMBER"><polygon fill="#DAE8FC" points="356.248,331.5632,417.4065,300.984,478.5649,331.5632,417.4065,362.1425" style="stroke:#181818;stroke-width:0.4000000000000001;"/><text fill="#000000" font-family="sans-serif" font-size="11.2" lengthAdjust="spacing" textLength="73.9197" x="380.4466" y="335.9088">is_member_of</text></g><g id="BELONGS_TO"><polygon fill="#DAE8FC" points="262.688,800.1824,315.8049,773.624,368.9218,800.1824,315.8049,826.7409" style="stroke:#181818;stroke-width:0.4000000000000001;"/><text fill="#000000" font-family="sans-serif" font-size="11.2" lengthAdjust="spacing" textLength="57.8366" x="286.8866" y="804.528">belongs_to</text></g><g id="CONTAINS_NEWS"><polygon fill="#DAE8FC" points="658.12,800.1873,704.6065,776.944,751.093,800.1873,704.6065,823.4305" style="stroke:#181818;stroke-width:0.4000000000000001;"/><text fill="#000000" font-family="sans-serif" font-size="11.2" lengthAdjust="spacing" textLength="44.5758" x="682.3186" y="804.5328">contains</text></g><g id="HAS_ASSIGNMENT"><polygon fill="#DAE8FC" points="1357.52,800.1817,1391.0034,783.44,1424.4867,800.1817,1391.0034,816.9234" style="stroke:#181818;stroke-width:0.4000000000000001;"/><text fill="#000000" font-family="sans-serif" font-size="11.2" lengthAdjust="spacing" textLength="18.5695" x="1381.7186" y="804.5273">has</text></g><g id="SUBMITS"><polygon fill="#DAE8FC" points="2212.232,727.0413,2257.4025,704.456,2302.5731,727.0413,2257.4025,749.6265" style="stroke:#181818;stroke-width:0.4000000000000001;"/><text fill="#000000" font-family="sans-serif" font-size="11.2" lengthAdjust="spacing" textLength="41.9438" x="2236.4306" y="731.3868">submits</text></g><g id="CONTAINS_SUBMISSION"><polygon fill="#DAE8FC" points="2026.92,1160.8913,2073.4065,1137.648,2119.893,1160.8913,2073.4065,1184.1345" style="stroke:#181818;stroke-width:0.4000000000000001;"/><text fill="#000000" font-family="sans-serif" font-size="11.2" lengthAdjust="spacing" textLength="44.5758" x="2051.1186" y="1165.2368">contains</text></g><g id="CREATES"><polygon fill="#DAE8FC" points="937.24,255.3049,980.6017,233.624,1023.9635,255.3049,980.6017,276.9857" style="stroke:#181818;stroke-width:0.4000000000000001;"/><text fill="#000000" font-family="sans-serif" font-size="11.2" lengthAdjust="spacing" textLength="38.3263" x="961.4386" y="259.6504">creates</text></g><g id="CREATES_NEWS"><polygon fill="#DAE8FC" points="1248.44,658.7769,1291.8017,637.096,1335.1635,658.7769,1291.8017,680.4577" style="stroke:#181818;stroke-width:0.4000000000000001;"/><text fill="#000000" font-family="sans-serif" font-size="11.2" lengthAdjust="spacing" textLength="38.3263" x="1272.6386" y="663.1224">creates</text></g><g id="CREATES_ASSIGNMENT"><polygon fill="#DAE8FC" points="1789.24,331.5609,1832.6017,309.88,1875.9635,331.5609,1832.6017,353.2417" style="stroke:#181818;stroke-width:0.4000000000000001;"/><text fill="#000000" font-family="sans-serif" font-size="11.2" lengthAdjust="spacing" textLength="38.3263" x="1813.4386" y="335.9064">creates</text></g><g id="COMMENTS_ON"><polygon fill="#DAE8FC" points="12.8,467.2224,74.2049,436.52,135.6097,467.2224,74.2049,497.9249" style="stroke:#181818;stroke-width:0.4000000000000001;"/><text fill="#000000" font-family="sans-serif" font-size="11.2" lengthAdjust="spacing" textLength="74.4125" x="36.9986" y="471.568">comments_on</text></g><g id="HAS_COMMENTS"><polygon fill="#DAE8FC" points="537.568,1160.8884,601.4089,1128.968,665.2497,1160.8884,601.4089,1192.8089" style="stroke:#181818;stroke-width:0.4000000000000001;"/><text fill="#000000" font-family="sans-serif" font-size="11.2" lengthAdjust="spacing" textLength="79.2845" x="561.7666" y="1165.234">has_comments</text></g><g id="LIKES"><polygon fill="#DAE8FC" points="1420.688,595.1357,1456.6074,577.176,1492.5267,595.1357,1456.6074,613.0954" style="stroke:#181818;stroke-width:0.4000000000000001;"/><text fill="#000000" font-family="sans-serif" font-size="11.2" lengthAdjust="spacing" textLength="23.4415" x="1444.8866" y="599.4813">likes</text></g><g id="HAS_LIKES"><polygon fill="#DAE8FC" points="991.312,1160.8853,1039.0025,1137.04,1086.693,1160.8853,1039.0025,1184.7305" style="stroke:#181818;stroke-width:0.4000000000000001;"/><text fill="#000000" font-family="sans-serif" font-size="11.2" lengthAdjust="spacing" textLength="46.9838" x="1015.5106" y="1165.2308">has_likes</text></g><!--link USER/UserID to USER--><g id="link_USER/UserID_USER"><path d="M1007.056,25.96 C1013.296,27.712 1019.984,29.552 1026.208,31.168 C1117.288,54.888 1226.808,80.08 1271.408,90.2 " fill="none" id="USER/UserID-USER" style="stroke:#181818;stroke-width:0.8000000000000002;"/></g><!--link USER/username to USER--><g id="link_USER/username_USER"><path d="M1106.928,28.256 C1149.496,43.576 1232.584,73.48 1271.184,87.376 " fill="none" id="USER/username-USER" style="stroke:#181818;stroke-width:0.8000000000000002;"/></g><!--link USER/password to USER--><g id="link_USER/password_USER"><path d="M1202.92,30.328 C1221.248,43.616 1251.384,65.48 1271.408,80.008 " fill="none" id="USER/password-USER" style="stroke:#181818;stroke-width:0.8000000000000002;"/></g><!--link USER/firstname to USER--><g id="link_USER/firstname_USER"><path d="M1291.808,31.336 C1291.808,44.576 1291.808,65.448 1291.808,79.608 " fill="none" id="USER/firstname-USER" style="stroke:#181818;stroke-width:0.8000000000000002;"/></g><!--link USER/lastname to USER--><g id="link_USER/lastname_USER"><path d="M1379.552,30.16 C1361.672,43.336 1332.152,65.072 1312.352,79.664 " fill="none" id="USER/lastname-USER" style="stroke:#181818;stroke-width:0.8000000000000002;"/></g><!--link USER/email to USER--><g id="link_USER/email_USER"><path d="M1463.952,26.072 C1428.296,40.304 1349.656,71.696 1312.296,86.616 " fill="none" id="USER/email-USER" style="stroke:#181818;stroke-width:0.8000000000000002;"/></g><!--link USER/auth_type to USER--><g id="link_USER/auth_type_USER"><path d="M1542.824,26.848 C1485.512,42.36 1361.256,75.992 1312.256,89.256 " fill="none" id="USER/auth_type-USER" style="stroke:#181818;stroke-width:0.8000000000000002;"/></g><!--link WORKSPACE/WorkspaceID to WORKSPACE--><g id="link_WORKSPACE/WorkspaceID_WORKSPACE"><path d="M844.64,412.736 C839.912,437.968 829.304,494.584 824.224,521.704 " fill="none" id="WORKSPACE/WorkspaceID-WORKSPACE" style="stroke:#181818;stroke-width:0.8000000000000002;"/></g><!--link WORKSPACE/name to WORKSPACE--><g id="link_WORKSPACE/name_WORKSPACE"><path d="M943.336,411.312 C919.552,435.784 862.856,494.104 836,521.736 " fill="none" id="WORKSPACE/name-WORKSPACE" style="stroke:#181818;stroke-width:0.8000000000000002;"/></g><!--link WORKSPACE/description to WORKSPACE--><g id="link_WORKSPACE/description_WORKSPACE"><path d="M1035.32,412.016 C1010.416,431.552 958.304,470.952 910.208,497.92 C893.84,507.096 874.888,515.64 858.704,522.368 " fill="none" id="WORKSPACE/description-WORKSPACE" style="stroke:#181818;stroke-width:0.8000000000000002;"/></g><!--link WORKSPACE/join_code to WORKSPACE--><g id="link_WORKSPACE/join_code_WORKSPACE"><path d="M1142.296,411.368 C1110.48,431.352 1040.528,473.296 976.608,497.92 C937.472,513 890.504,523.8 858.56,530.12 " fill="none" id="WORKSPACE/join_code-WORKSPACE" style="stroke:#181818;stroke-width:0.8000000000000002;"/></g><!--link WORKSPACE/created_at to WORKSPACE--><g id="link_WORKSPACE/created_at_WORKSPACE"><path d="M556.288,412.272 C578.184,432.896 625.72,474.8 673.408,497.92 C709.016,515.192 753.312,525.512 784.12,531.12 " fill="none" id="WORKSPACE/created_at-WORKSPACE" style="stroke:#181818;stroke-width:0.8000000000000002;"/></g><!--link WORKSPACE/CreatedByFK to WORKSPACE--><g id="link_WORKSPACE/CreatedByFK_WORKSPACE"><path d="M662.992,412.52 C675.288,432.784 702.152,473.2 734.208,497.92 C749.032,509.36 767.76,518.264 784.056,524.64 " fill="none" id="WORKSPACE/CreatedByFK-WORKSPACE" style="stroke:#181818;stroke-width:0.8000000000000002;"/></g><!--link WORKSPACE_MEMBER/MemberID to WORKSPACE_MEMBER--><g id="link_WORKSPACE_MEMBER/MemberID_WORKSPACE_MEMBER"><path d="M362.072,914.48 C353.8,930.504 339.56,958.08 330.744,975.144 " fill="none" id="WORKSPACE_MEMBER/MemberID-WORKSPACE_MEMBER" style="stroke:#181818;stroke-width:0.8000000000000002;"/></g><!--link WORKSPACE_MEMBER/UserIDFK to WORKSPACE_MEMBER--><g id="link_WORKSPACE_MEMBER/UserIDFK_WORKSPACE_MEMBER"><path d="M455.44,911.96 C429.272,927.408 379.216,956.96 348.696,974.976 " fill="none" id="WORKSPACE_MEMBER/UserIDFK-WORKSPACE_MEMBER" style="stroke:#181818;stroke-width:0.8000000000000002;"/></g><!--link WORKSPACE_MEMBER/WorkspaceIDFK to WORKSPACE_MEMBER--><g id="link_WORKSPACE_MEMBER/WorkspaceIDFK_WORKSPACE_MEMBER"><path d="M551.968,912.136 C506.496,927.624 420.24,957.016 367.56,974.96 " fill="none" id="WORKSPACE_MEMBER/WorkspaceIDFK-WORKSPACE_MEMBER" style="stroke:#181818;stroke-width:0.8000000000000002;"/></g><!--link WORKSPACE_MEMBER/role to WORKSPACE_MEMBER--><g id="link_WORKSPACE_MEMBER/role_WORKSPACE_MEMBER"><path d="M283.368,913.376 C291.528,929.176 306.184,957.568 315.208,975.048 " fill="none" id="WORKSPACE_MEMBER/role-WORKSPACE_MEMBER" style="stroke:#181818;stroke-width:0.8000000000000002;"/></g><!--link NEWS/NewsID to NEWS--><g id="link_NEWS/NewsID_NEWS"><path d="M785.072,910.456 C833.56,927.56 941.216,965.528 988.264,982.12 " fill="none" id="NEWS/NewsID-NEWS" style="stroke:#181818;stroke-width:0.8000000000000002;"/></g><!--link NEWS/WorkspaceIDFK to NEWS--><g id="link_NEWS/WorkspaceIDFK_NEWS"><path d="M893.344,913.736 C917.928,929.696 961.536,958.016 988.2,975.336 " fill="none" id="NEWS/WorkspaceIDFK-NEWS" style="stroke:#181818;stroke-width:0.8000000000000002;"/></g><!--link NEWS/title to NEWS--><g id="link_NEWS/title_NEWS"><path d="M977.784,913.736 C984.704,929.656 996.968,957.848 1004.496,975.184 " fill="none" id="NEWS/title-NEWS" style="stroke:#181818;stroke-width:0.8000000000000002;"/></g><!--link NEWS/content to NEWS--><g id="link_NEWS/content_NEWS"><path d="M1043.376,914.112 C1036.6,930.032 1024.776,957.8 1017.448,975.008 " fill="none" id="NEWS/content-NEWS" style="stroke:#181818;stroke-width:0.8000000000000002;"/></g><!--link NEWS/created_at to NEWS--><g id="link_NEWS/created_at_NEWS"><path d="M1130.896,913.192 C1106.072,929.128 1060.92,958.104 1033.672,975.592 " fill="none" id="NEWS/created_at-NEWS" style="stroke:#181818;stroke-width:0.8000000000000002;"/></g><!--link NEWS/CreatedByFK to NEWS--><g id="link_NEWS/CreatedByFK_NEWS"><path d="M1233.176,911.536 C1183.536,929.096 1079.672,965.848 1033.72,982.104 " fill="none" id="NEWS/CreatedByFK-NEWS" style="stroke:#181818;stroke-width:0.8000000000000002;"/></g><!--link COMMENT/CommentID to COMMENT--><g id="link_COMMENT/CommentID_COMMENT"><path d="M416.136,1268.328 C435.512,1281.728 467.104,1303.576 488.264,1318.208 " fill="none" id="COMMENT/CommentID-COMMENT" style="stroke:#181818;stroke-width:0.8000000000000002;"/></g><!--link COMMENT/NewsIDFK to COMMENT--><g id="link_COMMENT/NewsIDFK_COMMENT"><path d="M510.208,1269.176 C510.208,1282.664 510.208,1303.96 510.208,1318.288 " fill="none" id="COMMENT/NewsIDFK-COMMENT" style="stroke:#181818;stroke-width:0.8000000000000002;"/></g><!--link COMMENT/UserIDFK to COMMENT--><g id="link_COMMENT/UserIDFK_COMMENT"><path d="M586.584,1267.832 C571.008,1281.2 545.064,1303.464 527.8,1318.28 " fill="none" id="COMMENT/UserIDFK-COMMENT" style="stroke:#181818;stroke-width:0.8000000000000002;"/></g><!--link COMMENT/content to COMMENT--><g id="link_COMMENT/content_COMMENT"><path d="M666.736,1265.608 C636.504,1278.696 580.496,1302.944 544.312,1318.608 " fill="none" id="COMMENT/content-COMMENT" style="stroke:#181818;stroke-width:0.8000000000000002;"/></g><!--link COMMENT/created_at to COMMENT--><g id="link_COMMENT/created_at_COMMENT"><path d="M757.304,1264.928 C705.12,1279.384 599.064,1308.768 544.432,1323.896 " fill="none" id="COMMENT/created_at-COMMENT" style="stroke:#181818;stroke-width:0.8000000000000002;"/></g><!--link LIKE/LikeID to LIKE--><g id="link_LIKE/LikeID_LIKE"><path d="M1138.496,1266.376 C1163.432,1280.816 1209.632,1307.568 1235.472,1322.536 " fill="none" id="LIKE/LikeID-LIKE" style="stroke:#181818;stroke-width:0.8000000000000002;"/></g><!--link LIKE/NewsIDFK to LIKE--><g id="link_LIKE/NewsIDFK_LIKE"><path d="M1216.6,1268.84 C1224.472,1282.336 1237.072,1303.968 1245.488,1318.416 " fill="none" id="LIKE/NewsIDFK-LIKE" style="stroke:#181818;stroke-width:0.8000000000000002;"/></g><!--link LIKE/UserIDFK to LIKE--><g id="link_LIKE/UserIDFK_LIKE"><path d="M1291.808,1268.84 C1283.944,1282.336 1271.344,1303.968 1262.92,1318.416 " fill="none" id="LIKE/UserIDFK-LIKE" style="stroke:#181818;stroke-width:0.8000000000000002;"/></g><!--link LIKE/liked_at to LIKE--><g id="link_LIKE/liked_at_LIKE"><path d="M1369.368,1266.696 C1344.32,1281.2 1298.64,1307.648 1272.984,1322.504 " fill="none" id="LIKE/liked_at-LIKE" style="stroke:#181818;stroke-width:0.8000000000000002;"/></g><!--link ASSIGNMENT/AssignmentID to ASSIGNMENT--><g id="link_ASSIGNMENT/AssignmentID_ASSIGNMENT"><path d="M1603.632,911.784 C1665.184,928.52 1788.84,962.144 1852.28,979.392 " fill="none" id="ASSIGNMENT/AssignmentID-ASSIGNMENT" style="stroke:#181818;stroke-width:0.8000000000000002;"/></g><!--link ASSIGNMENT/WorkspaceIDFK to ASSIGNMENT--><g id="link_ASSIGNMENT/WorkspaceIDFK_ASSIGNMENT"><path d="M1729.016,913.016 C1762.224,928.744 1822.824,957.456 1859.984,975.064 " fill="none" id="ASSIGNMENT/WorkspaceIDFK-ASSIGNMENT" style="stroke:#181818;stroke-width:0.8000000000000002;"/></g><!--link ASSIGNMENT/title to ASSIGNMENT--><g id="link_ASSIGNMENT/title_ASSIGNMENT"><path d="M1812.848,911.616 C1828.288,926.976 1858.336,956.856 1876.576,975 " fill="none" id="ASSIGNMENT/title-ASSIGNMENT" style="stroke:#181818;stroke-width:0.8000000000000002;"/></g><!--link ASSIGNMENT/description to ASSIGNMENT--><g id="link_ASSIGNMENT/description_ASSIGNMENT"><path d="M1891.808,914.48 C1891.808,930.504 1891.808,958.08 1891.808,975.144 " fill="none" id="ASSIGNMENT/description-ASSIGNMENT" style="stroke:#181818;stroke-width:0.8000000000000002;"/></g><!--link ASSIGNMENT/due_date to ASSIGNMENT--><g id="link_ASSIGNMENT/due_date_ASSIGNMENT"><path d="M1986.384,913.376 C1966.912,929.176 1931.928,957.568 1910.4,975.048 " fill="none" id="ASSIGNMENT/due_date-ASSIGNMENT" style="stroke:#181818;stroke-width:0.8000000000000002;"/></g><!--link ASSIGNMENT/CreatedByFK to ASSIGNMENT--><g id="link_ASSIGNMENT/CreatedByFK_ASSIGNMENT"><path d="M2083.52,912.048 C2045.512,927.528 1973.096,957.032 1928.96,975.008 " fill="none" id="ASSIGNMENT/CreatedByFK-ASSIGNMENT" style="stroke:#181818;stroke-width:0.8000000000000002;"/></g><!--link ASSIGNMENT_SUBMISSION/SubmissionID to ASSIGNMENT_SUBMISSION--><g id="link_ASSIGNMENT_SUBMISSION/SubmissionID_ASSIGNMENT_SUBMISSION"><path d="M2353.408,1269.176 C2353.408,1282.664 2353.408,1303.96 2353.408,1318.288 " fill="none" id="ASSIGNMENT_SUBMISSION/SubmissionID-ASSIGNMENT_SUBMISSION" style="stroke:#181818;stroke-width:0.8000000000000002;"/></g><!--link ASSIGNMENT_SUBMISSION/AssignmentIDFK to ASSIGNMENT_SUBMISSION--><g id="link_ASSIGNMENT_SUBMISSION/AssignmentIDFK_ASSIGNMENT_SUBMISSION"><path d="M2473.496,1268.16 C2448.816,1281.56 2408.272,1303.584 2381.216,1318.28 " fill="none" id="ASSIGNMENT_SUBMISSION/AssignmentIDFK-ASSIGNMENT_SUBMISSION" style="stroke:#181818;stroke-width:0.8000000000000002;"/></g><!--link ASSIGNMENT_SUBMISSION/UserIDFK to ASSIGNMENT_SUBMISSION--><g id="link_ASSIGNMENT_SUBMISSION/UserIDFK_ASSIGNMENT_SUBMISSION"><path d="M2584.848,1263.808 C2578.528,1265.752 2571.712,1267.84 2565.408,1269.752 C2510.432,1286.448 2447.368,1305.344 2404.408,1318.176 " fill="none" id="ASSIGNMENT_SUBMISSION/UserIDFK-ASSIGNMENT_SUBMISSION" style="stroke:#181818;stroke-width:0.8000000000000002;"/></g><!--link ASSIGNMENT_SUBMISSION/submission_date to ASSIGNMENT_SUBMISSION--><g id="link_ASSIGNMENT_SUBMISSION/submission_date_ASSIGNMENT_SUBMISSION"><path d="M2682.68,1265.608 C2619.184,1278.672 2501.624,1302.872 2425.504,1318.536 " fill="none" id="ASSIGNMENT_SUBMISSION/submission_date-ASSIGNMENT_SUBMISSION" style="stroke:#181818;stroke-width:0.8000000000000002;"/></g><!--link ASSIGNMENT_SUBMISSION/score to ASSIGNMENT_SUBMISSION--><g id="link_ASSIGNMENT_SUBMISSION/score_ASSIGNMENT_SUBMISSION"><path d="M2199.68,1267.52 C2208.048,1275.952 2220.552,1287.312 2233.408,1294.552 C2250.952,1304.44 2271.392,1312.24 2290.368,1318.168 " fill="none" id="ASSIGNMENT_SUBMISSION/score-ASSIGNMENT_SUBMISSION" style="stroke:#181818;stroke-width:0.8000000000000002;"/></g><!--link USER to IS_MEMBER--><g id="link_USER_IS_MEMBER"><path d="M1271.264,101.904 C1157.96,132.272 608.8,279.464 456.592,320.264 " fill="none" id="USER-IS_MEMBER" style="stroke:#181818;stroke-width:0.8000000000000002;"/><text fill="#000000" font-family="sans-serif" font-size="8.8" lengthAdjust="spacing" textLength="5.0336" x="1051.648" y="170.2311">1</text></g><!--link IS_MEMBER to WORKSPACE_MEMBER--><g id="link_IS_MEMBER_WORKSPACE_MEMBER"><path d="M364.456,336.064 C287.6,344.632 154.208,372.96 154.208,466.416 C154.208,466.416 154.208,466.416 154.208,901.832 C154.208,951.688 212.736,973.448 260.872,982.92 " fill="none" id="IS_MEMBER-WORKSPACE_MEMBER" style="stroke:#181818;stroke-width:1.6000000000000003;"/><text fill="#000000" font-family="sans-serif" font-size="8.8" lengthAdjust="spacing" textLength="6.688" x="155.008" y="662.5831">N</text></g><!--link WORKSPACE to BELONGS_TO--><g id="link_WORKSPACE_BELONGS_TO"><path d="M792.04,553.512 C701.408,600.304 427.104,741.92 341.568,786.088 " fill="none" id="WORKSPACE-BELONGS_TO" style="stroke:#181818;stroke-width:1.6000000000000003;"/><text fill="#000000" font-family="sans-serif" font-size="8.8" lengthAdjust="spacing" textLength="5.0336" x="627.912" y="662.5831">1</text></g><!--link BELONGS_TO to WORKSPACE_MEMBER--><g id="link_BELONGS_TO_WORKSPACE_MEMBER"><path d="M293.256,815.728 C264.64,836.44 220.928,875.952 238.208,914.512 C250.024,940.888 276.088,961.84 296.216,974.944 " fill="none" id="BELONGS_TO-WORKSPACE_MEMBER" style="stroke:#181818;stroke-width:1.6000000000000003;"/><text fill="#000000" font-family="sans-serif" font-size="8.8" lengthAdjust="spacing" textLength="6.688" x="239.008" y="904.8391">N</text></g><!--link WORKSPACE to CONTAINS_NEWS--><g id="link_WORKSPACE_CONTAINS_NEWS"><path d="M814.624,553.512 C794.464,598.56 734.976,731.512 712.936,780.76 " fill="none" id="WORKSPACE-CONTAINS_NEWS" style="stroke:#181818;stroke-width:0.8000000000000002;"/><text fill="#000000" font-family="sans-serif" font-size="8.8" lengthAdjust="spacing" textLength="5.0336" x="777.32" y="662.5831">1</text></g><!--link CONTAINS_NEWS to NEWS--><g id="link_CONTAINS_NEWS_NEWS"><path d="M698.032,820.368 C691.016,845.016 683.52,887.592 704.608,914.512 C740.08,959.808 923.536,981.68 988.32,988.08 " fill="none" id="CONTAINS_NEWS-NEWS" style="stroke:#181818;stroke-width:1.6000000000000003;"/><text fill="#000000" font-family="sans-serif" font-size="8.8" lengthAdjust="spacing" textLength="6.688" x="705.408" y="904.8391">N</text></g><!--link WORKSPACE to HAS_ASSIGNMENT--><g id="link_WORKSPACE_HAS_ASSIGNMENT"><path d="M858.72,540.24 C966.944,546.488 1277.744,570.024 1349.408,637.096 C1391.24,676.256 1393.32,751.248 1392.064,783.736 " fill="none" id="WORKSPACE-HAS_ASSIGNMENT" style="stroke:#181818;stroke-width:0.8000000000000002;"/><text fill="#000000" font-family="sans-serif" font-size="8.8" lengthAdjust="spacing" textLength="5.0336" x="1378.312" y="662.5831">1</text></g><!--link HAS_ASSIGNMENT to ASSIGNMENT--><g id="link_HAS_ASSIGNMENT_ASSIGNMENT"><path d="M1397.76,813.68 C1411.248,837.664 1443.944,889.472 1487.008,914.512 C1549.112,950.64 1763.24,976.656 1852.384,986.168 " fill="none" id="HAS_ASSIGNMENT-ASSIGNMENT" style="stroke:#181818;stroke-width:1.6000000000000003;"/><text fill="#000000" font-family="sans-serif" font-size="8.8" lengthAdjust="spacing" textLength="6.688" x="1487.808" y="904.8391">N</text></g><!--link USER to SUBMITS--><g id="link_USER_SUBMITS"><path d="M1312.352,96.768 C1451.824,99.4 2254.208,116.68 2254.208,165.624 C2254.208,165.624 2254.208,165.624 2254.208,595.936 C2254.208,634.176 2255.6,678.72 2256.544,704.576 " fill="none" id="USER-SUBMITS" style="stroke:#181818;stroke-width:0.8000000000000002;"/><text fill="#000000" font-family="sans-serif" font-size="8.8" lengthAdjust="spacing" textLength="5.0336" x="2255.008" y="335.3751">1</text></g><!--link SUBMITS to ASSIGNMENT_SUBMISSION--><g id="link_SUBMITS_ASSIGNMENT_SUBMISSION"><path d="M2256.536,749.44 C2255.592,774.968 2254.208,818.744 2254.208,856.344 C2254.208,856.344 2254.208,856.344 2254.208,1256.48 C2254.208,1286.224 2282.408,1306.112 2308.736,1318.2 " fill="none" id="SUBMITS-ASSIGNMENT_SUBMISSION" style="stroke:#181818;stroke-width:1.6000000000000003;"/><text fill="#000000" font-family="sans-serif" font-size="8.8" lengthAdjust="spacing" textLength="6.688" x="2255.008" y="1040.7751">N</text></g><!--link ASSIGNMENT to CONTAINS_SUBMISSION--><g id="link_ASSIGNMENT_CONTAINS_SUBMISSION"><path d="M1907.92,1006.68 C1942.472,1038.712 2023.304,1113.64 2057.584,1145.424 " fill="none" id="ASSIGNMENT-CONTAINS_SUBMISSION" style="stroke:#181818;stroke-width:0.8000000000000002;"/><text fill="#000000" font-family="sans-serif" font-size="8.8" lengthAdjust="spacing" textLength="5.0336" x="1987.944" y="1077.5751">1</text></g><!--link CONTAINS_SUBMISSION to ASSIGNMENT_SUBMISSION--><g id="link_CONTAINS_SUBMISSION_ASSIGNMENT_SUBMISSION"><path d="M2081.008,1180.632 C2091.672,1204.816 2113.32,1246.312 2144.608,1269.752 C2184.336,1299.52 2238.08,1315.48 2281.088,1323.976 " fill="none" id="CONTAINS_SUBMISSION-ASSIGNMENT_SUBMISSION" style="stroke:#181818;stroke-width:1.6000000000000003;"/><text fill="#000000" font-family="sans-serif" font-size="8.8" lengthAdjust="spacing" textLength="6.688" x="2145.408" y="1259.4871">N</text></g><!--link USER to CREATES--><g id="link_USER_CREATES"><path d="M1271.384,106.768 C1215.2,135.312 1058.704,214.824 1001.712,243.784 " fill="none" id="USER-CREATES" style="stroke:#181818;stroke-width:0.8000000000000002;"/><text fill="#000000" font-family="sans-serif" font-size="8.8" lengthAdjust="spacing" textLength="5.0336" x="1166.664" y="170.2311">1</text></g><!--link CREATES to WORKSPACE--><g id="link_CREATES_WORKSPACE"><path d="M952.936,263.56 C905.296,278.072 809.096,315.096 769.408,386.144 C743.568,432.392 785.488,493.72 808.248,521.688 " fill="none" id="CREATES-WORKSPACE" style="stroke:#181818;stroke-width:1.6000000000000003;"/><text fill="#000000" font-family="sans-serif" font-size="8.8" lengthAdjust="spacing" textLength="6.688" x="770.208" y="403.1351">N</text></g><!--link USER to CREATES_NEWS--><g id="link_USER_CREATES_NEWS"><path d="M1291.808,111.52 C1291.808,125.544 1291.808,146.992 1291.808,165.624 C1291.808,165.624 1291.808,165.624 1291.808,538.352 C1291.808,572.824 1291.808,612.888 1291.808,636.8 " fill="none" id="USER-CREATES_NEWS" style="stroke:#181818;stroke-width:0.8000000000000002;"/><text fill="#000000" font-family="sans-serif" font-size="8.8" lengthAdjust="spacing" textLength="5.0336" x="1292.608" y="335.3751">1</text></g><!--link CREATES_NEWS to NEWS--><g id="link_CREATES_NEWS_NEWS"><path d="M1300.656,676.376 C1322.648,720.664 1374.04,842.2 1317.408,914.512 C1281.936,959.808 1098.48,981.68 1033.696,988.08 " fill="none" id="CREATES_NEWS-NEWS" style="stroke:#181818;stroke-width:1.6000000000000003;"/><text fill="#000000" font-family="sans-serif" font-size="8.8" lengthAdjust="spacing" textLength="6.688" x="1342.816" y="860.9511">N</text></g><!--link USER to CREATES_ASSIGNMENT--><g id="link_USER_CREATES_ASSIGNMENT"><path d="M1312.288,101.232 C1338.808,107.744 1386.264,120.256 1425.408,135.224 C1578.864,193.912 1753.856,287.496 1812.368,319.56 " fill="none" id="USER-CREATES_ASSIGNMENT" style="stroke:#181818;stroke-width:0.8000000000000002;"/><text fill="#000000" font-family="sans-serif" font-size="8.8" lengthAdjust="spacing" textLength="5.0336" x="1514.52" y="170.2311">1</text></g><!--link CREATES_ASSIGNMENT to ASSIGNMENT--><g id="link_CREATES_ASSIGNMENT_ASSIGNMENT"><path d="M1865.336,337.288 C1954.344,351.592 2194.208,396.624 2194.208,466.416 C2194.208,466.416 2194.208,466.416 2194.208,901.832 C2194.208,955.976 2013.304,979.192 1931.336,986.936 " fill="none" id="CREATES_ASSIGNMENT-ASSIGNMENT" style="stroke:#181818;stroke-width:1.6000000000000003;"/><text fill="#000000" font-family="sans-serif" font-size="8.8" lengthAdjust="spacing" textLength="6.688" x="2195.008" y="662.5831">N</text></g><!--link USER to COMMENTS_ON--><g id="link_USER_COMMENTS_ON"><path d="M1271.384,96.464 C1112.96,97.112 86.208,103.712 86.208,165.624 C86.208,165.624 86.208,165.624 86.208,332.368 C86.208,369.048 81.688,411.16 78.2,438.24 " fill="none" id="USER-COMMENTS_ON" style="stroke:#181818;stroke-width:0.8000000000000002;"/><text fill="#000000" font-family="sans-serif" font-size="8.8" lengthAdjust="spacing" textLength="5.0336" x="87.008" y="207.0311">1</text></g><!--link COMMENTS_ON to COMMENT--><g id="link_COMMENTS_ON_COMMENT"><path d="M75.952,497.36 C77.32,522.952 79.008,561.088 79.008,594.336 C79.008,594.336 79.008,594.336 79.008,1256.48 C79.008,1296.736 374.024,1323.008 476.008,1330.888 " fill="none" id="COMMENTS_ON-COMMENT" style="stroke:#181818;stroke-width:1.6000000000000003;"/><text fill="#000000" font-family="sans-serif" font-size="8.8" lengthAdjust="spacing" textLength="6.688" x="79.808" y="948.7191">N</text></g><!--link NEWS to HAS_COMMENTS--><g id="link_NEWS_HAS_COMMENTS"><path d="M988.4,1001.032 C920.392,1028.984 717.368,1112.432 635.848,1145.936 " fill="none" id="NEWS-HAS_COMMENTS" style="stroke:#181818;stroke-width:0.8000000000000002;"/><text fill="#000000" font-family="sans-serif" font-size="8.8" lengthAdjust="spacing" textLength="5.0336" x="827.456" y="1077.5751">1</text></g><!--link HAS_COMMENTS to COMMENT--><g id="link_HAS_COMMENTS_COMMENT"><path d="M552.528,1168.784 C481.016,1180.288 353.392,1205.408 326.208,1241.608 C284.568,1297.056 412.056,1321.2 475.984,1329.616 " fill="none" id="HAS_COMMENTS-COMMENT" style="stroke:#181818;stroke-width:1.6000000000000003;"/><text fill="#000000" font-family="sans-serif" font-size="8.8" lengthAdjust="spacing" textLength="6.688" x="327.008" y="1259.4871">N</text></g><!--link USER to LIKES--><g id="link_USER_LIKES"><path d="M1312.232,99.456 C1344.736,105.616 1404.608,122.768 1404.608,165.624 C1404.608,165.624 1404.608,165.624 1404.608,468.016 C1404.608,512.368 1432.352,559.328 1447.312,581.416 " fill="none" id="USER-LIKES" style="stroke:#181818;stroke-width:0.8000000000000002;"/><text fill="#000000" font-family="sans-serif" font-size="8.8" lengthAdjust="spacing" textLength="5.0336" x="1405.408" y="259.1111">1</text></g><!--link LIKES to LIKE--><g id="link_LIKES_LIKE"><path d="M1458.76,612.36 C1461.808,637.032 1467.008,685.168 1467.008,726.24 C1467.008,726.24 1467.008,726.24 1467.008,1256.48 C1467.008,1297.528 1325.168,1322.808 1273.088,1330.704 " fill="none" id="LIKES-LIKE" style="stroke:#181818;stroke-width:1.6000000000000003;"/><text fill="#000000" font-family="sans-serif" font-size="8.8" lengthAdjust="spacing" textLength="6.688" x="1467.808" y="994.7511">N</text></g><!--link NEWS to HAS_LIKES--><g id="link_NEWS_HAS_LIKES"><path d="M1013.488,1006.68 C1018.472,1036.616 1029.68,1104.032 1035.44,1138.664 " fill="none" id="NEWS-HAS_LIKES" style="stroke:#181818;stroke-width:0.8000000000000002;"/><text fill="#000000" font-family="sans-serif" font-size="8.8" lengthAdjust="spacing" textLength="5.0336" x="1026.504" y="1077.5751">1</text></g><!--link HAS_LIKES to LIKE--><g id="link_HAS_LIKES_LIKE"><path d="M1040.04,1184.536 C1042.336,1208.728 1049.536,1246.56 1071.808,1269.752 C1116.976,1316.816 1198.8,1329.096 1235.504,1332.28 " fill="none" id="HAS_LIKES-LIKE" style="stroke:#181818;stroke-width:1.6000000000000003;"/><text fill="#000000" font-family="sans-serif" font-size="8.8" lengthAdjust="spacing" textLength="6.688" x="1072.608" y="1259.4871">N</text></g><!--SRC=[lLVRRjiu47tdLn3Pb_OXsIOeDa6G6FL5pZgnv2AocqU2bXY76uaqI2gfiUY_xv2wsweTzBA00PESCtFE38Ua_KaRgapqn0IE4ggraZ8bUgCDIn6wqcQJi1uwOS9miy7_8em7D7g-KJ8JyL0cKk4_l3DlFEg3PIo5oTUM2O3GDtIYM48Dbq8_yNMtzwZlNOo7tTxFBAUqfj0gmKkPnB0mPr_DY4LIkU0OeZ6LSC70wUhFGZCgD1yjD5D7c6gy2BrxV7MLh_TwBlHH1bR2unm0uya8843Swu7L6WLD6GpNK9jNgIpx8rVQ5CjGidB8KieJ-AQPUI9cixPgAX4FKZthDOsO8tgOtT-5d_j3RqVEQuahDLMEBM45PSnqfFZQ5W5c_qWkI2HZQuaKeuR5X1eRjPmjDoxcC9yEDkCxYFae5UChWMsrZNH508ukxSHdwR8ePfK2yJr_q57Or67BD7BFLWuTfT-Zvq1jkZmhitDNCcdjIC1UjOiIU0_XZde1rfB68jlAVqu9y2HkZw2jWVKNxzPGfYcCSzUPxtl1V2UxACUKwWkNTewx5UZYjvOVsitEv1jfJFbpVbQcaxlTOvA0jIIpoFzLkYNVbjlN6g1LuVjXEBa9EcjFAsH9MVl-ZYvhtn5nnaWCvVxvFgjLap1RfXocKcmbJyB5m9_0T1Rir45NJcLwTPXs7VPNh4jjRV-X3Mv8AsgbuQrnjqVhGJlYcXJNd7nqmITXVHqseIxfRyYzGCUdnpKErHxNmVNEhRfDk6I952jDZ7Hq0syw2sv2CfzryzNlpFNfTGED6evleRM7bNAXYqibcFSdGKYAYtClhqssvO3QxfRTBMynFj6SxEz-I5g7wI1RsmDj1R1y3UiMgzjuapExrfs71pQoGA4ItOxVwF-tbRHrNZfu6vcqAjlWwOhrTbNk3YX4tNlzkNUe00KAbUXMExqX_9ukskOe-gVfzxtswI8wr4OxT8q-wOYnlvEA5rQJuauiNkAGV6zdQ_OQYPfUbg-OTnmMKX9MfwRqxQPprIkFImb5BRyzXFO5rDNhV6Zx70RbI1lKZhfIgADQ7NiYjyJdqMkFck4J4x7zOuFGvuGAi_2d-8KfUwtZqvEp3sSVJyxVXTJWaAtnXtDyUd5fF-TuCfnZQtwFti6PnbfcAc8uvjeelioiblVebhvGV9_1YvQoIpnRCt4xkYiNi2TUk9Bk0KAtN_mQyDV7um6tZ0gKu2y-6h57cYK6FE27EnUhIxoOZuylq9IALKPN41lq3-7_ab4Ri8N_0G00]--></g></svg>